<?xml version="1.0" encoding="UTF-8"?>
<svg version="1.1" xmlns="http://www.w3.org/2000/svg" width="1254" height="1254">
<path d="M0 0 C413.82 0 827.64 0 1254 0 C1254 413.82 1254 827.64 1254 1254 C840.18 1254 426.36 1254 0 1254 C0 840.18 0 426.36 0 0 Z " fill="#021C36" transform="translate(0,0)"/>
<path d="M0 0 C98.67 0 197.34 0 299 0 C301.97 3.96 304.94 7.92 308 12 C310.14130338 14.81619854 312.28518401 17.62978854 314.4375 20.4375 C314.99042725 21.15993896 315.54335449 21.88237793 316.11303711 22.62670898 C318.61431268 25.89327596 321.11899775 29.15713392 323.6328125 32.4140625 C328.05107271 38.13933216 332.42444897 43.89206723 336.75 49.6875 C341.09907714 55.51232033 345.52398104 61.27221822 350 67 C354.91822035 73.29451523 359.76124237 79.63751459 364.5378418 86.04003906 C368.09436873 90.80401071 371.69291944 95.53379296 375.3125 100.25 C380.14707098 106.55160817 384.92956802 112.89034651 389.6875 119.25 C394.50579532 125.68875197 399.35662894 132.09704147 404.2734375 138.4609375 C412.08728549 148.58465279 419.84334092 158.75683037 427.5 169 C436.57904804 181.13998424 445.78099709 193.18786751 455.125 205.125 C460.46534039 211.95174898 465.63109234 218.89177522 470.74609375 225.88842773 C475.34565558 232.1607329 480.08728136 238.31035071 484.8840332 244.43261719 C488.71408108 249.32689622 492.47493363 254.26610602 496.1875 259.25 C499.81287349 264.11385511 503.48455674 268.93122423 507.25 273.6875 C517.01833712 286.02930364 526.48598977 298.610094 535.90625 311.21875 C539.18097611 315.56875931 542.50851548 319.877748 545.8359375 324.1875 C546.90714844 325.5796875 546.90714844 325.5796875 548 327 C548.59039063 327.7425 549.18078125 328.485 549.7890625 329.25 C551 331 551 331 551 333 C551.66 333 552.32 333 553 333 C553 223.44 553 113.88 553 1 C636.49 1 719.98 1 806 1 C806 271.6 806 542.2 806 821 C785.3883857 821 785.3883857 821 777.98193359 813.61132812 C777.56250488 813.11052734 777.14307617 812.60972656 776.7109375 812.09375 C774.59661968 809.65404028 772.42451127 807.50831755 769.9375 805.4375 C766.07604823 802.09632805 762.3196821 798.64413496 758.56225586 795.18725586 C755.39202282 792.27195596 752.20596675 789.37609236 749 786.5 C740.5456538 778.90861737 732.20416139 771.19367201 723.85839844 763.48339844 C718.74597134 758.76165233 713.61669235 754.05845851 708.48388672 749.35888672 C705.48575646 746.61331366 702.48937894 743.86582709 699.49316406 741.11816406 C697.03247259 738.86186487 694.57021844 736.60733857 692.10546875 734.35546875 C687.77045276 730.39185975 683.44363873 726.42142357 679.15625 722.40625 C678.49729736 721.78919189 677.83834473 721.17213379 677.15942383 720.53637695 C675.88450104 719.34100859 674.61081408 718.14432019 673.33862305 716.94604492 C669.32075449 713.17727875 665.20510363 709.55899295 661 706 C657.11166231 707.81036596 654.27729886 710.32346338 651.1875 713.25 C650.12449355 714.24173891 649.0606949 715.2326294 647.99609375 716.22265625 C647.4841748 716.69977051 646.97225586 717.17688477 646.44482422 717.66845703 C643.70084846 720.19729174 640.85547287 722.5988069 638 725 C633.89605607 723.4479284 631.6216233 720.49652151 628.9375 717.1875 C627.95334004 715.99851989 626.96895913 714.80972263 625.984375 713.62109375 C625.48615234 713.01507324 624.98792969 712.40905273 624.47460938 711.78466797 C622.67481635 709.60644164 620.84558557 707.45460898 619.01245117 705.30444336 C614.31830439 699.79723265 609.71087088 694.22253415 605.125 688.625 C600.03043931 682.40902148 594.83189374 676.29830501 589.5456543 670.24487305 C585.70562342 665.83969888 581.98654348 661.35035553 578.30859375 656.80859375 C575.08368678 652.88522977 571.76424853 649.04589563 568.44775391 645.19995117 C565.34547582 641.59415939 562.30526963 637.94787242 559.3125 634.25 C555.76604884 629.87923857 552.05136408 625.70298081 548.26171875 621.54296875 C545.08809677 617.97469947 542.09043923 614.27332319 539.0859375 610.5625 C536.44858732 607.32260914 533.73591241 604.15682201 531 601 C527.8973167 601.60145371 525.94393336 602.5546454 523.453125 604.484375 C522.78120117 605.00088623 522.10927734 605.51739746 521.41699219 606.04956055 C520.70188477 606.61070557 519.98677734 607.17185059 519.25 607.75 C518.50137695 608.32983643 517.75275391 608.90967285 516.98144531 609.50708008 C511.17098449 614.02842879 505.44985261 618.65709711 499.75439453 623.32202148 C494.57710557 627.55710817 489.31137399 631.65574455 483.98046875 635.6953125 C480.2562012 638.57515241 476.6752796 641.61253121 473.12109375 644.69921875 C471 646 471 646 469.22646523 645.91820526 C465.91214428 644.55136292 463.72694397 642.1250894 461.25546265 639.60949707 C460.6858423 639.04173443 460.11622195 638.4739718 459.52934039 637.88900423 C457.61831321 635.98058128 455.71822322 634.06162688 453.81787109 632.14257812 C452.45173719 630.77396152 451.08493507 629.40601164 449.71751404 628.03868103 C446.00241325 624.32016406 442.29656936 620.59254113 438.59214354 616.86339378 C434.71898318 612.96778705 430.83695592 609.0810385 426.95571899 605.19348145 C419.60361227 597.82687652 412.25876144 590.4530838 404.91682684 583.07634211 C391.76061125 569.85822388 378.59220008 556.65226031 365.42107642 543.44899893 C360.79562571 538.8116878 356.17337066 534.17122061 351.55372214 529.52812958 C348.6848874 526.64550344 345.8140911 523.76483655 342.94284248 520.88461494 C341.60758825 519.54427595 340.27321193 518.20306174 338.93976021 516.86092949 C337.12563139 515.03517777 335.30849254 513.21247609 333.49057007 511.39050293 C332.95828242 510.85325608 332.42599477 510.31600923 331.87757719 509.76248217 C329.19685538 507.0401487 329.19685538 507.0401487 326 505 C325.75636719 505.57234375 325.51273438 506.1446875 325.26171875 506.734375 C323.77482702 509.40433538 322.01916092 511.13829007 319.8125 513.25 C316.32749143 516.6573173 313.05220035 520.13989657 309.87890625 523.8359375 C307.62719119 526.42938894 305.31605282 528.96386976 303 531.5 C300.21313891 534.55386574 297.4472508 537.61682988 294.75 540.75 C290.66876543 545.45313698 286.37935988 549.96236648 282.12084961 554.50415039 C278.59379587 558.27240241 275.13007409 562.07691648 271.76171875 565.98828125 C269.42528786 568.65626775 267.02580246 571.26511251 264.625 573.875 C258.55324339 580.47771124 252.5065102 587.10150721 246.625 593.875 C243.17080696 597.84330549 239.60869442 601.71012559 236.04516602 605.57983398 C233.512893 608.33438092 231.00979797 611.10725075 228.5625 613.9375 C226.00291919 616.89605623 223.36433962 619.76852495 220.69604492 622.62841797 C216.38913845 627.24520753 212.20560392 631.88510411 208.25 636.8125 C205.01103564 640.84658919 201.60072475 644.5094284 197.89453125 648.11328125 C195.40756335 650.58999361 193.129457 653.21676421 190.83984375 655.875 C186.53354721 660.84872679 182.08093829 665.69560525 177.671875 670.578125 C174.25694362 674.36474959 170.85013474 678.15583617 167.5 682 C162.62856797 687.58979989 157.6410485 693.07534898 152.671875 698.578125 C148.07008743 703.68078741 143.50626246 708.81272681 139 714 C133.32107672 710.4276325 128.47449548 706.14748101 123.47851562 701.68945312 C120.13877651 698.74382361 116.94506775 696.12776207 113 694 C111.97561545 694.99636187 110.95577287 695.99739287 109.9375 697 C109.08478516 697.8353125 109.08478516 697.8353125 108.21484375 698.6875 C106.32974163 700.6557195 104.53871301 702.66072232 102.75390625 704.71875 C98.30513466 709.83622924 93.63249981 714.7313364 88.9609375 719.64453125 C85.09031886 723.73184476 81.31888322 727.88101947 77.63037109 732.13330078 C75.24299465 734.86673598 72.7830789 737.52940088 70.3125 740.1875 C69.27082674 741.3124939 68.22916027 742.43749408 67.1875 743.5625 C66.125 744.70833333 65.0625 745.85416667 64 747 C61.93625792 749.22802006 59.87380484 751.45722492 57.8125 753.6875 C57.05573975 754.50613525 57.05573975 754.50613525 56.28369141 755.34130859 C53.39166328 758.47520513 50.52795115 761.63162025 47.6875 764.8125 C43.04502421 769.99815395 38.27399484 775.06071324 33.4909668 780.11645508 C29.81770007 784.01166557 26.24815356 787.97653016 22.73681641 792.01806641 C19.88291774 795.27473626 16.94782255 798.45345877 14 801.625 C13.4225 802.2540625 12.845 802.883125 12.25 803.53125 C11.6725 804.15257812 11.095 804.77390625 10.5 805.4140625 C9.9946875 805.9601416 9.489375 806.5062207 8.96875 807.06884766 C6.11972273 809.86346642 3.03007605 812.40279196 0 815 C0 546.05 0 277.1 0 0 Z " fill="#DF1718" transform="translate(224,209)"/>
<path d="M0 0 C1.546875 0.8353125 1.546875 0.8353125 3.125 1.6875 C3.74375 2.120625 4.3625 2.55375 5 3 C5 3.66 5 4.32 5 5 C5.56283691 4.85900879 6.12567383 4.71801758 6.70556641 4.57275391 C9.34364824 3.91632474 11.98426606 3.27067396 14.625 2.625 C15.50929688 2.40328125 16.39359375 2.1815625 17.3046875 1.953125 C30.11596703 -1.15818574 42.5865154 -2.33230762 55.72290039 -2.26074219 C58.06357615 -2.24999506 60.40348751 -2.26072055 62.74414062 -2.2734375 C70.63245911 -2.28045891 78.12716438 -1.86490466 85.91870117 -0.49462891 C91.2886784 0.36739263 96.70093629 0.60884086 102.125 0.9375 C111.97255657 1.59036915 121.59180436 2.68383682 131.3046875 4.4140625 C136.9115546 5.46284456 136.9115546 5.46284456 142.140625 3.828125 C142.83671875 3.30734375 143.5328125 2.7865625 144.25 2.25 C155.15016994 -5.44744889 165.87251707 -7.14594586 179 -6 C185.65724423 -4.45842575 190.34690008 0.3947144 194 6 C198.88028505 16.59125691 197.50638582 27.20440549 194 38 C192.93414531 40.37574345 191.82740707 42.68272186 190.57421875 44.96484375 C189.80187841 47.07891453 189.80187841 47.07891453 190.58984375 49.56640625 C192.31232825 52.53900415 193.85037607 53.42037445 196.875 55 C204.18454238 59.20404316 204.18454238 59.20404316 206 63 C206.65769037 69.21344321 206.40769583 74.23294991 204 80 C203.81204292 83.88444628 203.87561057 87.23113619 204.49609375 91.06640625 C206.25326666 104.78325213 205.673854 118.68227926 202 132 C201.67515625 133.52947266 201.67515625 133.52947266 201.34375 135.08984375 C197.63146883 152.25914417 186.98084036 166.54650213 175 179 C174.17628906 179.86367188 173.35257813 180.72734375 172.50390625 181.6171875 C167.96135564 186.28329548 167.96135564 186.28329548 166 188 C165.34 188 164.68 188 164 188 C164.21595847 192.40756895 164.44670108 196.8140734 164.68969727 201.22021484 C164.77001191 202.71122506 164.84666043 204.20243844 164.91918945 205.69384766 C165.65259649 220.67558307 166.36939657 234.98341097 175.41015625 247.515625 C175.83699707 248.11673096 176.26383789 248.71783691 176.70361328 249.3371582 C177.37626221 250.28401489 177.37626221 250.28401489 178.0625 251.25 C196.0037409 277.01590173 208.61106257 305.15287697 216.0625 335.625 C216.37396973 336.88876465 216.68543945 338.1525293 217.00634766 339.45458984 C217.28397949 340.63746582 217.56161133 341.8203418 217.84765625 343.0390625 C218.09523682 344.09303223 218.34281738 345.14700195 218.59790039 346.23291016 C219 349 219 349 218 353 C187.31 322.31 156.62 291.62 125 260 C120.57977524 263.5319411 120.57977524 263.5319411 116.875 267.5 C113.8613712 271.02463542 110.76729483 274.46516059 107.625 277.875 C104.2292584 281.56517006 100.84884435 285.26705881 97.5 289 C94.15114806 292.73294965 90.77026998 296.43438884 87.375 300.125 C83.77216356 304.04380977 80.220035 307.99948462 76.73046875 312.01953125 C71.53412315 317.96659043 66.19477277 323.78858768 60.875 329.625 C57.46198509 333.37458341 54.09278969 337.15523412 50.76953125 340.984375 C48.74885044 343.28607764 46.68687382 345.54764379 44.625 347.8125 C41.53363199 351.23229328 38.57540968 354.71958524 35.6875 358.3125 C31.79744069 363.12585437 27.67128166 367.6476145 23.44433594 372.16113281 C19.52121407 376.37393141 15.88103586 380.76395352 12.27734375 385.25390625 C9.33922549 388.79678299 6.21768822 392.15441772 3.08349609 395.52197266 C0.11269934 398.73316873 -2.69968321 402.02636841 -5.4375 405.4375 C-9.80140459 410.85908343 -14.4842153 415.92842117 -19.2265625 421.015625 C-23.60478652 425.71263754 -27.7829899 430.57226183 -31.94921875 435.45703125 C-32.74779297 436.39204468 -32.74779297 436.39204468 -33.5625 437.34594727 C-34.62287116 438.58841041 -35.6815459 439.83232394 -36.73828125 441.07788086 C-37.71148242 442.21938596 -38.69213661 443.35459108 -39.68115234 444.48242188 C-40.81630687 445.78862708 -41.9069662 447.13326228 -42.98828125 448.484375 C-45 450 -45 450 -47.74243164 449.78076172 C-51.23821743 448.94290494 -53.95763569 447.70196471 -57.1328125 446.0234375 C-58.26847656 445.435625 -59.40414062 444.8478125 -60.57421875 444.2421875 C-62.35805966 443.30664452 -64.13971922 442.36719781 -65.91943359 441.42382812 C-67.65189342 440.5093555 -69.39226589 439.60992289 -71.1328125 438.7109375 C-72.16293457 438.16743652 -73.19305664 437.62393555 -74.25439453 437.06396484 C-76.86121701 435.82068538 -76.86121701 435.82068538 -79.2434082 436.20043945 C-81.96999887 437.44152138 -83.25530648 439.45132567 -85.0625 441.8125 C-88.3951353 446.04259374 -91.82215271 450.06793251 -95.5 454 C-98.97517065 457.73227921 -102.30077548 461.52382096 -105.5 465.5 C-108.69933697 469.47631881 -112.0260728 473.2664576 -115.5 477 C-119.71401391 481.5338728 -123.68225432 486.2124091 -127.56640625 491.03125 C-132.04200563 496.49105021 -136.71834734 501.77926309 -141.35351562 507.10351562 C-143.93637409 510.07855189 -146.50056914 513.0694406 -149.0625 516.0625 C-149.55339111 516.63589111 -150.04428223 517.20928223 -150.55004883 517.80004883 C-151.53885203 518.95530518 -152.52754049 520.11065976 -153.51611328 521.26611328 C-155.0086556 523.01011386 -156.50217627 524.75327104 -157.99609375 526.49609375 C-158.74052734 527.36463989 -158.74052734 527.36463989 -159.5 528.25073242 C-160.49305913 529.40881652 -161.4865428 530.56653672 -162.48046875 531.72387695 C-165.10403087 534.78024052 -167.7170586 537.84487919 -170.31640625 540.921875 C-170.85974609 541.56253906 -171.40308594 542.20320312 -171.96289062 542.86328125 C-173.0050195 544.09245889 -174.04423517 545.32411425 -175.08007812 546.55859375 C-177.27139346 549.1376727 -179.16399699 551.10933133 -182 553 C-182 483.37 -182 413.74 -182 342 C-179.66022612 344.33977388 -178.20484179 346.05707502 -176.51953125 348.79296875 C-176.07802734 349.50517578 -175.63652344 350.21738281 -175.18164062 350.95117188 C-174.50391602 352.0581543 -174.50391602 352.0581543 -173.8125 353.1875 C-173.34908203 353.93708984 -172.88566406 354.68667969 -172.40820312 355.45898438 C-171.26845974 357.30372367 -170.13373645 359.15156289 -169 361 C-168.98541748 360.18547363 -168.97083496 359.37094727 -168.95581055 358.53173828 C-168.013452 311.32057423 -168.013452 311.32057423 -157 294 C-154.41857547 296.97856677 -152.40808014 300.01085903 -150.5 303.4375 C-146.59244603 310.08929035 -141.49444168 315.66915962 -136.390625 321.41259766 C-135.179096 322.79556141 -134.00766639 324.21345142 -132.84375 325.63671875 C-132.2559375 326.35472656 -131.668125 327.07273437 -131.0625 327.8125 C-130.57910156 328.41707031 -130.09570312 329.02164062 -129.59765625 329.64453125 C-128.05190368 331.20702723 -128.05190368 331.20702723 -125.69921875 331.28515625 C-121.48655143 332.40081199 -119.48274822 335.35868623 -116.75 338.625 C-116.18224854 339.29289551 -115.61449707 339.96079102 -115.02954102 340.64892578 C-107.57264673 349.64437713 -97 362.94179328 -97 375 C-96.34 375 -95.68 375 -95 375 C-95.71607901 347.67426678 -98.55733106 319.75366942 -111 295 C-112.05349453 292.3718873 -113.04755175 289.72766216 -114.03515625 287.07421875 C-114.81616037 284.83260144 -114.81616037 284.83260144 -117 284 C-117.13277344 284.67546875 -117.26554687 285.3509375 -117.40234375 286.046875 C-117.57894531 286.93890625 -117.75554687 287.8309375 -117.9375 288.75 C-118.11152344 289.63171875 -118.28554688 290.5134375 -118.46484375 291.421875 C-118.92368488 293.63235053 -119.43336074 295.81512068 -120 298 C-120.66 298 -121.32 298 -122 298 C-136.22685041 272.23124781 -144.24722241 247.18105683 -144.0625 217.5 C-144.05747533 216.09114742 -144.05291413 214.68229311 -144.04882812 213.2734375 C-144.0371003 209.84891362 -144.02068691 206.42447953 -144 203 C-159.291057 216.44674092 -170.95446846 231.22948523 -181 249 C-186.31765725 233.04702826 -170.21815908 201.5288336 -162.91699219 186.81787109 C-160.69233467 182.45309684 -158.37692435 178.14149366 -156.01513672 173.84960938 C-155.13446323 172.24499602 -154.27075334 170.63109473 -153.41015625 169.015625 C-143.2219295 149.93739431 -131.18777929 132.3335608 -117 116 C-118.65 116 -120.3 116 -122 116 C-121.13809822 111.44388289 -118.44467856 108.92707288 -115.3125 105.6875 C-114.20862628 104.52309127 -113.10574954 103.35773651 -112.00390625 102.19140625 C-111.47812988 101.63727051 -110.95235352 101.08313477 -110.41064453 100.51220703 C-108.78660122 98.77123709 -107.25700522 96.96782811 -105.75 95.125 C-103.80888736 92.81658792 -101.75360731 90.85561259 -99.45703125 88.90234375 C-94.46244637 84.57013135 -89.67674353 80.04640528 -84.9375 75.4375 C-83.61975586 74.2009668 -83.61975586 74.2009668 -82.27539062 72.93945312 C-81.45103516 72.13314453 -80.62667969 71.32683594 -79.77734375 70.49609375 C-79.02702881 69.77607178 -78.27671387 69.0560498 -77.50366211 68.31420898 C-75.69293169 66.03020097 -75.69293169 66.03020097 -76.18945312 62.93701172 C-76.96547972 60.12508402 -77.87302076 57.38960723 -78.86743164 54.64770508 C-83.62771086 41.22294855 -84.09920747 27.15784083 -78 14 C-71.13262636 2.33154213 -61.99569036 -6.02200053 -48.75 -9.609375 C-31.06356429 -12.1216528 -15.48606256 -8.75826238 0 0 Z " fill="#041D37" transform="translate(424,414)"/>
<path d="M0 0 C6.02233459 4.98698244 11.52337907 10.39464396 17.03442383 15.93676758 C18.02704857 16.9313149 19.01990375 17.92563227 20.01296997 18.91973877 C22.13801346 21.04792548 24.26149792 23.17765099 26.38376808 25.30860329 C29.73840102 28.67682212 33.09690201 32.04116634 36.45597839 35.404953 C43.57779499 42.53783488 50.69535297 49.67495932 57.8125 56.8125 C65.51428261 64.53631262 73.21680199 72.25938216 80.92418689 79.97760504 C84.26518791 83.3235942 87.60373459 86.67200754 90.94043601 90.02228415 C93.01049602 92.09978334 95.08260763 94.17522672 97.15529251 96.25010681 C98.57833523 97.67592475 99.99886279 99.10425155 101.41932678 100.53263855 C102.26178955 101.37517181 103.10425232 102.21770508 103.97224426 103.08576965 C104.70611768 103.82186368 105.43999109 104.55795771 106.1961031 105.31635761 C107.90461042 107.07036673 107.90461042 107.07036673 110 108 C110 108.66 110 109.32 110 110 C110.898396 110.40796562 110.898396 110.40796562 111.81494141 110.82417297 C113.95812162 111.97746434 115.28642694 113.07011266 116.9609375 114.81323242 C117.50830566 115.37689011 118.05567383 115.94054779 118.61962891 116.52128601 C119.19890137 117.12656631 119.77817383 117.73184662 120.375 118.35546875 C121.61936316 119.6299758 122.86416814 120.90405162 124.109375 122.17773438 C126.06328586 124.18759097 128.01304256 126.20107515 129.95507812 128.22241211 C131.83404345 130.17366356 133.72813691 132.10913435 135.625 134.04296875 C136.20427246 134.65432175 136.78354492 135.26567474 137.38037109 135.89555359 C139.18294976 137.779518 139.18294976 137.779518 142 140 C146.27080662 139.54581534 148.85101475 136.81098799 151.9375 134.0625 C156.34176984 130.23736203 160.79243108 126.52951247 165.4375 123 C165.97189697 122.59322021 166.50629395 122.18644043 167.05688477 121.76733398 C168.14991908 120.93551773 169.24310035 120.10389453 170.33642578 119.27246094 C173.20162186 117.08088449 176.03925207 114.8544791 178.875 112.625 C179.44645752 112.17576172 180.01791504 111.72652344 180.60668945 111.26367188 C185.77022676 107.19556114 190.90342633 103.08966551 196.02685547 98.97119141 C197.18287162 98.04304231 198.34199459 97.11874312 199.50488281 96.19921875 C200.75592459 95.19577048 201.97247465 94.14952038 203.1796875 93.09375 C205 92 205 92 206.91546631 92.25363159 C209.29098182 93.1041862 210.41243196 94.05481509 212.17285156 95.84814453 C212.76737122 96.44611847 213.36189087 97.04409241 213.97442627 97.66018677 C214.92294464 98.63663651 214.92294464 98.63663651 215.890625 99.6328125 C216.55406921 100.30287323 217.21751343 100.97293396 217.90106201 101.66329956 C220.02458306 103.81022553 222.1377293 105.96700916 224.25 108.125 C226.34960995 110.25988533 228.45140123 112.39255311 230.55609131 114.52243042 C231.86399012 115.84704858 233.16877556 117.1747512 234.4697876 118.50613403 C238.20925397 122.30570628 242.08173425 125.86328894 246.11779785 129.34512329 C248.80626372 131.70888616 251.30428537 134.21024194 253.8203125 136.7578125 C254.32746796 137.26875458 254.83462341 137.77969666 255.35714722 138.30612183 C256.94894952 139.90994398 258.53740182 141.51701688 260.125 143.125 C262.22877035 145.25560252 264.33600338 147.38269481 266.4453125 149.5078125 C267.36844238 150.44254395 268.29157227 151.37727539 269.24267578 152.34033203 C274.11654386 157.4970965 274.11654386 157.4970965 280.28588867 160.49169922 C281.34126831 160.39912842 281.34126831 160.39912842 282.41796875 160.3046875 C283.19720703 160.24796875 283.97644531 160.19125 284.77929688 160.1328125 C285.97135742 160.00519531 285.97135742 160.00519531 287.1875 159.875 C287.99380859 159.813125 288.80011719 159.75125 289.63085938 159.6875 C292.97384385 159.40961268 295.80069482 159.06643506 299 158 C305.71950887 156.45985089 311.3281827 155.37743731 317.36328125 159.04248047 C320.7062526 161.89688665 323.59649551 165.14764971 326.5 168.4375 C327.52481323 169.53419295 328.55344797 170.62732776 329.5859375 171.71679688 C333.74435644 176.13971332 337.74682915 180.69430769 341.71875 185.28515625 C345.28228656 189.39252784 349.11962984 193.19396643 353 197 C356.95867373 200.88283707 360.85058338 204.76340662 364.46875 208.96875 C368.26142048 213.37203182 372.35573206 217.42986924 376.5 221.5 C381.28903952 226.20336798 385.89334324 230.96017723 390.27148438 236.04882812 C393.19625696 239.35035108 396.35012556 242.41507142 399.5 245.5 C403.26269812 249.18511672 406.94298029 252.87695613 410.375 256.875 C414.50501088 261.66469765 418.9948337 266.06600536 423.5 270.5 C432.59737328 279.4536549 432.59737328 279.4536549 436.46875 283.96875 C440.71188046 288.91167665 445.36183726 293.43106357 450 298 C459.63433878 307.49054268 459.63433878 307.49054268 463.62890625 312.2265625 C465.89269304 314.88413796 468.18934189 317.03242762 470.96484375 319.1484375 C476.32114583 323.3827803 481.21640662 327.27962021 482.6796875 334.22705078 C483.30415046 341.84613182 482.84048526 349.41321972 482 357 C464.98979298 358.93991801 464.98979298 358.93991801 459.125 354.57421875 C456.29909859 352.06927692 453.76727966 349.31266241 451.29589844 346.4609375 C449.64947458 344.60483344 447.84244844 343.02366115 445.9375 341.4375 C442.07604823 338.09632805 438.3196821 334.64413496 434.56225586 331.18725586 C431.39202282 328.27195596 428.20596675 325.37609236 425 322.5 C416.5456538 314.90861737 408.20416139 307.19367201 399.85839844 299.48339844 C394.74597134 294.76165233 389.61669235 290.05845851 384.48388672 285.35888672 C381.48575646 282.61331366 378.48937894 279.86582709 375.49316406 277.11816406 C373.03247259 274.86186487 370.57021844 272.60733857 368.10546875 270.35546875 C363.77045276 266.39185975 359.44363873 262.42142357 355.15625 258.40625 C354.49729736 257.78919189 353.83834473 257.17213379 353.15942383 256.53637695 C351.88450104 255.34100859 350.61081408 254.14432019 349.33862305 252.94604492 C345.32075449 249.17727875 341.20510363 245.55899295 337 242 C333.11166231 243.81036596 330.27729886 246.32346338 327.1875 249.25 C326.12449355 250.24173891 325.0606949 251.2326294 323.99609375 252.22265625 C323.4841748 252.69977051 322.97225586 253.17688477 322.44482422 253.66845703 C319.70084846 256.19729174 316.85547287 258.5988069 314 261 C309.89605607 259.4479284 307.6216233 256.49652151 304.9375 253.1875 C303.95334004 251.99851989 302.96895913 250.80972263 301.984375 249.62109375 C301.48615234 249.01507324 300.98792969 248.40905273 300.47460938 247.78466797 C298.67481635 245.60644164 296.84558557 243.45460898 295.01245117 241.30444336 C290.31830439 235.79723265 285.71087088 230.22253415 281.125 224.625 C276.03043931 218.40902148 270.83189374 212.29830501 265.5456543 206.24487305 C261.70562342 201.83969888 257.98654348 197.35035553 254.30859375 192.80859375 C251.08368678 188.88522977 247.76424853 185.04589563 244.44775391 181.19995117 C241.34547582 177.59415939 238.30526963 173.94787242 235.3125 170.25 C231.76604884 165.87923857 228.05136408 161.70298081 224.26171875 157.54296875 C221.08809677 153.97469947 218.09043923 150.27332319 215.0859375 146.5625 C212.44858732 143.32260914 209.73591241 140.15682201 207 137 C203.8973167 137.60145371 201.94393336 138.5546454 199.453125 140.484375 C198.78120117 141.00088623 198.10927734 141.51739746 197.41699219 142.04956055 C196.70188477 142.61070557 195.98677734 143.17185059 195.25 143.75 C194.50137695 144.32983643 193.75275391 144.90967285 192.98144531 145.50708008 C187.17098449 150.02842879 181.44985261 154.65709711 175.75439453 159.32202148 C170.57710557 163.55710817 165.31137399 167.65574455 159.98046875 171.6953125 C156.2562012 174.57515241 152.6752796 177.61253121 149.12109375 180.69921875 C147 182 147 182 145.22646523 181.91820526 C141.91214428 180.55136292 139.72694397 178.1250894 137.25546265 175.60949707 C136.40103213 174.75785311 136.40103213 174.75785311 135.52934039 173.88900423 C133.61831321 171.98058128 131.71822322 170.06162688 129.81787109 168.14257812 C128.45173719 166.77396152 127.08493507 165.40601164 125.71751404 164.03868103 C122.00241325 160.32016406 118.29656936 156.59254113 114.59214354 152.86339378 C110.71898318 148.96778705 106.83695592 145.0810385 102.95571899 141.19348145 C95.60361227 133.82687652 88.25876144 126.4530838 80.91682684 119.07634211 C67.76061125 105.85822388 54.59220008 92.65226031 41.42107642 79.44899893 C36.79562571 74.8116878 32.17337066 70.17122061 27.55372214 65.52812958 C24.6848874 62.64550344 21.8140911 59.76483655 18.94284248 56.88461494 C17.60758825 55.54427595 16.27321193 54.20306174 14.93976021 52.86092949 C13.12563139 51.03517777 11.30849254 49.21247609 9.49057007 47.39050293 C8.95828242 46.85325608 8.42599477 46.31600923 7.87757719 45.76248217 C5.19685538 43.0401487 5.19685538 43.0401487 2 41 C1.75636719 41.57234375 1.51273438 42.1446875 1.26171875 42.734375 C-0.22517298 45.40433538 -1.98083908 47.13829007 -4.1875 49.25 C-7.67250857 52.6573173 -10.94779965 56.13989657 -14.12109375 59.8359375 C-16.37280881 62.42938894 -18.68394718 64.96386976 -21 67.5 C-23.78686109 70.55386574 -26.5527492 73.61682988 -29.25 76.75 C-33.33123457 81.45313698 -37.62064012 85.96236648 -41.87915039 90.50415039 C-45.40620413 94.27240241 -48.86992591 98.07691648 -52.23828125 101.98828125 C-54.57471214 104.65626775 -56.97419754 107.26511251 -59.375 109.875 C-65.44675661 116.47771124 -71.4934898 123.10150721 -77.375 129.875 C-80.82919304 133.84330549 -84.39130558 137.71012559 -87.95483398 141.57983398 C-90.487107 144.33438092 -92.99020203 147.10725075 -95.4375 149.9375 C-97.99708081 152.89605623 -100.63566038 155.76852495 -103.30395508 158.62841797 C-107.61086155 163.24520753 -111.79439608 167.88510411 -115.75 172.8125 C-118.98896436 176.84658919 -122.39927525 180.5094284 -126.10546875 184.11328125 C-128.59243665 186.58999361 -130.870543 189.21676421 -133.16015625 191.875 C-137.46645279 196.84872679 -141.91906171 201.69560525 -146.328125 206.578125 C-149.74305638 210.36474959 -153.14986526 214.15583617 -156.5 218 C-161.37143203 223.58979989 -166.3589515 229.07534898 -171.328125 234.578125 C-175.92991257 239.68078741 -180.49373754 244.81272681 -185 250 C-190.67892328 246.4276325 -195.52550452 242.14748101 -200.52148438 237.68945312 C-203.86122349 234.74382361 -207.05493225 232.12776207 -211 230 C-212.02438455 230.99636187 -213.04422713 231.99739287 -214.0625 233 C-214.63097656 233.556875 -215.19945312 234.11375 -215.78515625 234.6875 C-217.67025837 236.6557195 -219.46128699 238.66072232 -221.24609375 240.71875 C-225.69486534 245.83622924 -230.36750019 250.7313364 -235.0390625 255.64453125 C-238.90968114 259.73184476 -242.68111678 263.88101947 -246.36962891 268.13330078 C-248.75700535 270.86673598 -251.2169211 273.52940088 -253.6875 276.1875 C-254.72917326 277.3124939 -255.77083973 278.43749408 -256.8125 279.5625 C-257.875 280.70833333 -258.9375 281.85416667 -260 283 C-262.06374208 285.22802006 -264.12619516 287.45722492 -266.1875 289.6875 C-266.69200684 290.23325684 -267.19651367 290.77901367 -267.71630859 291.34130859 C-270.60833672 294.47520513 -273.47204885 297.63162025 -276.3125 300.8125 C-280.95497579 305.99815395 -285.72600516 311.06071324 -290.5090332 316.11645508 C-294.18229993 320.01166557 -297.75184644 323.97653016 -301.26318359 328.01806641 C-304.11708226 331.27473626 -307.05217745 334.45345877 -310 337.625 C-310.5775 338.2540625 -311.155 338.883125 -311.75 339.53125 C-315.60468953 343.67848293 -319.64060339 347.38570434 -324 351 C-324.27503513 346.09321937 -324.47287884 341.19105094 -324.60424805 336.27832031 C-324.65906812 334.61346203 -324.73376561 332.94912085 -324.82983398 331.28613281 C-325.68968065 316.0020134 -325.68968065 316.0020134 -320.23860168 309.69915771 C-317.93013405 307.34909628 -315.46323649 305.18569171 -313 303 C-311.44370639 301.17549506 -309.91666282 299.3250766 -308.4375 297.4375 C-305.40642433 293.67161811 -302.27418423 290.05670244 -299 286.5 C-294.88621091 282.0301488 -291.02912703 277.40955107 -287.21484375 272.68359375 C-285.04367173 270.05291443 -282.79758643 267.52057576 -280.5 265 C-277.38541332 261.58260628 -274.4081338 258.0947765 -271.5 254.5 C-267.88967558 250.03723787 -264.11572071 245.77280467 -260.25 241.53125 C-257.92137947 238.9115519 -255.70437053 236.2248469 -253.5 233.5 C-249.88850866 229.03579543 -246.11339306 224.76997886 -242.24609375 220.52734375 C-239.93812402 217.93037607 -237.74444137 215.26595987 -235.5625 212.5625 C-231.65130709 207.72982185 -227.53968975 203.1257313 -223.3359375 198.546875 C-216.63792879 191.24402938 -210.31949286 183.62916643 -204 176 C-199.84892832 176.61331321 -196.69844851 178.0192742 -193 179.9765625 C-191.865625 180.564375 -190.73125 181.1521875 -189.5625 181.7578125 C-187.77556389 182.69162438 -185.99119359 183.62968201 -184.2109375 184.57617188 C-182.48046765 185.49286351 -180.74032152 186.39121481 -179 187.2890625 C-177.96875 187.83256348 -176.9375 188.37606445 -175.875 188.93603516 C-172.63799053 190.13397056 -171.21705178 190.16676926 -168 189 C-165.87161904 187.02530322 -164.01438241 185.11748684 -162.125 182.9375 C-161.59326172 182.34187256 -161.06152344 181.74624512 -160.51367188 181.13256836 C-158.99847392 179.43074575 -157.49797116 177.71697901 -156 176 C-155.36835938 175.29101562 -154.73671875 174.58203125 -154.0859375 173.8515625 C-151.43816932 170.8646713 -148.85124644 167.82639007 -146.26171875 164.7890625 C-145.23716908 163.58837959 -144.21242354 162.38786379 -143.1875 161.1875 C-142.67018311 160.58131836 -142.15286621 159.97513672 -141.61987305 159.35058594 C-138.41497771 155.6092918 -135.14790722 151.93884617 -131.8125 148.3125 C-128.60354956 144.81740111 -125.53934163 141.2571616 -122.5625 137.5625 C-118.90364231 133.0260327 -115.05131037 128.741339 -111.08398438 124.47851562 C-108.1129881 121.26718772 -105.30046168 117.97381211 -102.5625 114.5625 C-98.20258694 109.14587552 -93.52524121 104.08061704 -88.78515625 99 C-86.02653661 96.04123978 -83.35388674 93.01604915 -80.70703125 89.95703125 C-78.66366569 87.6144085 -76.58319141 85.30726578 -74.5 83 C-71.81016569 80.01937279 -69.13689636 77.02754767 -66.5 74 C-60.72176642 67.3716355 -54.7983075 60.87356042 -48.875 54.375 C-45.45895958 50.62209273 -42.08956673 46.83545574 -38.7578125 43.0078125 C-32.77464624 36.17370703 -26.62166622 29.49525212 -20.45361328 22.82861328 C-13.51642355 15.32385546 -6.70745083 7.71065006 0 0 Z " fill="#FBFAFB" transform="translate(548,673)"/>
<path d="M0 0 C4.04879807 1.57400581 6.49699418 4.45496297 9.3125 7.625 C10.38598012 8.81056505 11.46023413 9.99542972 12.53515625 11.1796875 C13.09992676 11.80456055 13.66469727 12.42943359 14.24658203 13.07324219 C17.212232 16.33207114 20.23180511 19.53990363 23.25 22.75 C23.87616211 23.41717041 24.50232422 24.08434082 25.14746094 24.77172852 C29.10815558 28.99088207 33.07470243 33.20451506 37.04223633 37.41723633 C60.28722026 62.10045974 60.28722026 62.10045974 66.4296875 69.24609375 C68.85344455 71.95322539 71.46113012 74.46832877 74.046875 77.01953125 C76.47108259 79.47767775 78.71239956 82.06152688 80.9609375 84.6796875 C83.03637114 87.04138785 85.16650675 89.34135858 87.3125 91.63867188 C104 109.51515625 104 109.51515625 104 113 C102.41015625 114.453125 102.41015625 114.453125 100.0625 116.25 C95.16377055 120.07017396 90.35096477 123.9799249 85.5625 127.9375 C84.46518555 128.84121338 84.46518555 128.84121338 83.34570312 129.76318359 C80.06488464 132.46524931 76.78902181 135.1725226 73.53125 137.90234375 C72.5515625 138.71832031 71.571875 139.53429687 70.5625 140.375 C69.29599609 141.43847656 69.29599609 141.43847656 68.00390625 142.5234375 C66 144 66 144 64 144 C64.825 144.78375 65.65 145.5675 66.5 146.375 C69 149 69 149 69 151 C69.99 151.33 70.98 151.66 72 152 C73.41224003 153.4322443 73.41224003 153.4322443 74.95509338 155.32398987 C79.8921218 161.13523297 85.31827698 166.44199698 90.71850586 171.81616211 C91.8921608 172.98789462 93.06558587 174.15985742 94.23880005 175.33203125 C96.75057315 177.84066068 99.26388668 180.34773257 101.77842522 182.85359001 C105.75133538 186.8129206 109.72037701 190.77611415 113.68885803 194.73988342 C122.1021047 203.14206385 130.51959782 211.5399842 138.9375 219.9375 C148.05036471 229.02834126 157.16248794 238.11991868 166.26977068 247.21635252 C170.2190048 251.16059237 174.17066678 255.10237892 178.12417877 259.04233062 C180.57309865 261.48382366 183.01997412 263.92735756 185.46628189 266.37146759 C186.60548537 267.50878984 187.74555739 268.64524283 188.88653374 269.78078651 C190.43644503 271.32354587 191.98330421 272.86930034 193.52940369 274.4158783 C194.39785888 275.28211287 195.26631407 276.14834745 196.16108608 277.04083157 C198 279 198 279 198 280 C190.4056647 280.20435839 182.81204868 280.34356833 175.21557617 280.43945312 C172.63653062 280.47946084 170.05766391 280.53388641 167.47924805 280.60351562 C141.19849032 281.29498072 141.19849032 281.29498072 130 272 C127.92324698 270.71218017 125.82330802 269.46108632 123.703125 268.24609375 C122.65592285 267.62742432 121.6087207 267.00875488 120.52978516 266.37133789 C119.44745605 265.73317139 118.36512695 265.09500488 117.25 264.4375 C114.86658821 263.02965811 112.48389791 261.62059998 110.1015625 260.2109375 C109.50439423 259.85759842 108.90722595 259.50425934 108.29196167 259.14021301 C102.38610026 255.64233442 96.50504341 252.10357285 90.625 248.5625 C81.68508319 243.18122532 72.69903924 237.88487427 63.6875 232.625 C50.3568155 224.84364257 37.1569617 216.85802471 23.98291016 208.81494141 C19.6676176 206.18931652 15.33627341 203.59079385 11 201 C11 201.66 11 202.32 11 203 C9.3623728 204.45402342 7.66265804 205.83848678 5.9375 207.1875 C1.92361615 210.39552738 -1.78588534 213.66103732 -5.35546875 217.34765625 C-7.00841603 219.00845601 -8.72251638 220.53622391 -10.5 222.0625 C-14.60509425 225.59833314 -18.55012619 229.29318045 -22.5 233 C-27.06985222 237.28809518 -31.66146461 241.52416752 -36.421875 245.6015625 C-37.98307048 246.9849981 -39.42984116 248.43420259 -40.875 249.9375 C-43 252 -43 252 -45 252 C-44.6986703 247.51122661 -44.30438783 243.36627131 -42.5625 239.1875 C-41.26692582 236.04755465 -40.63590756 233.12838109 -40.15625 229.76904297 C-38.89748228 221.89250223 -36.91543307 214.22584327 -34.9375 206.5078125 C-34.54122063 204.94759217 -34.1453129 203.3872774 -33.74975586 201.82687378 C-32.92571255 198.58041847 -32.09844114 195.3348102 -31.26855469 192.08984375 C-30.20787547 187.94207496 -29.15353794 183.79272723 -28.10136414 179.64279366 C-27.28648577 176.43036302 -26.4692257 173.21854233 -25.65115356 170.00692368 C-25.26153616 168.47691691 -24.87242945 166.94678 -24.4838562 165.41650772 C-23.9407252 163.27985188 -23.39462112 161.14397795 -22.84765625 159.00830078 C-22.53836182 157.79651154 -22.22906738 156.58472229 -21.91040039 155.33621216 C-21.04875753 152.17867464 -20.0363862 149.10334663 -19 146 C-18.43981673 142.94233297 -18.000976 139.88184944 -17.5625 136.8046875 C-17 134 -17 134 -16.0390625 132.1484375 C-14.44565254 128.85379285 -13.9944675 125.32774086 -13.375 121.75 C-13.2409375 121.00492188 -13.106875 120.25984375 -12.96875 119.4921875 C-12.64033324 117.662437 -12.3194202 115.83134246 -12 114 C-11.34 114 -10.68 114 -10 114 C-9.34 109.71 -8.68 105.42 -8 101 C-8.66 101 -9.32 101 -10 101 C-10.27529541 101.59296875 -10.55059082 102.1859375 -10.83422852 102.796875 C-11.94519071 104.89641905 -13.09513767 106.4681735 -14.65234375 108.25 C-15.17618652 108.85255615 -15.7000293 109.4551123 -16.23974609 110.07592773 C-16.80000488 110.71087158 -17.36026367 111.34581543 -17.9375 112 C-18.51580566 112.66136963 -19.09411133 113.32273926 -19.68994141 114.00415039 C-24.24720837 119.19613942 -28.8975449 124.29763144 -33.5859375 129.37109375 C-35.59124135 131.55486315 -37.5586607 133.75963925 -39.5 136 C-42.9067735 139.9308925 -46.43002785 143.75196573 -49.953125 147.578125 C-52.50555143 150.35494057 -55.02983288 153.14980717 -57.5 156 C-60.43844531 159.39051382 -63.46134963 162.69949382 -66.5 166 C-73.36556273 173.46562282 -79.97757118 181.13074363 -86.57104492 188.8359375 C-90.35052246 193.25062639 -94.15581288 197.64144982 -98 202 C-98 198.74336834 -97.40732904 197.39734424 -96.0078125 194.50390625 C-95.33480103 193.10470947 -95.33480103 193.10470947 -94.64819336 191.67724609 C-94.14553955 190.64937988 -93.64288574 189.62151367 -93.125 188.5625 C-92.5997876 187.47791504 -92.0745752 186.39333008 -91.53344727 185.27587891 C-86.04263303 173.98680876 -80.41386101 162.76515686 -74.76025391 151.55688477 C-70.68827409 143.46976779 -66.71688066 135.34281769 -62.83203125 127.1640625 C-58.66662781 118.40416796 -54.39361681 109.70252292 -50.046875 101.03125 C-49.74929354 100.4375272 -49.45171207 99.8438044 -49.14511299 99.23209 C-47.01630005 94.98660595 -44.88354603 90.74310695 -42.75 86.5 C-32.89801163 66.98400608 -32.89801163 66.98400608 -23.50830078 47.24365234 C-20.81676858 41.45542042 -17.9336785 35.76316438 -15.0625 30.0625 C-14.45080261 28.84417918 -13.83931401 27.62575351 -13.22802734 26.40722656 C-12.03303647 24.02571231 -10.83691262 21.64477921 -9.64013672 19.26416016 C-7.46200991 14.92930523 -5.29274643 10.59005228 -3.125 6.25 C-2.50266544 5.0051777 -1.88027778 3.76038194 -1.2578125 2.515625 C-0.84273437 1.68546875 -0.42765625 0.8553125 0 0 Z " fill="#FBFBFB" transform="translate(550,750)"/>
<path d="M0 0 C1.52608887 -0.00241699 1.52608887 -0.00241699 3.08300781 -0.00488281 C26.4414393 0.33650381 46.70523458 7.66433688 63.0625 24.375 C66.0625 27.97245763 66.0625 27.97245763 66.0625 30.375 C66.7225 30.375 67.3825 30.375 68.0625 30.375 C64.9335222 21.0213536 61.84116299 14.56257284 54.0625 8.375 C54.0625 8.045 54.0625 7.715 54.0625 7.375 C76.28542447 6.40254134 91.72792213 11.32397588 108.5625 25.9375 C119.62535562 36.3806899 119.62535562 36.3806899 120.0625 43.375 C118.0825 43.375 116.1025 43.375 114.0625 43.375 C114.3925 44.365 114.7225 45.355 115.0625 46.375 C114.02351562 46.46136719 112.98453125 46.54773438 111.9140625 46.63671875 C102.16247587 47.56845119 92.84985791 48.7213478 86 56.5 C83.04945486 60.87822828 82.46254782 64.14684525 83.0625 69.375 C87.76462641 77.83251595 95.173767 82.12710713 103.41796875 86.69140625 C106.0625 88.375 106.0625 88.375 108.0625 91.375 C108.14453125 93.53125 108.14453125 93.53125 107.875 95.875 C107.76091797 97.03515625 107.76091797 97.03515625 107.64453125 98.21875 C106.92839086 100.87183386 106.29509427 101.7721118 104.0625 103.375 C102.06147936 103.94918096 100.03517601 104.4370206 98 104.875 C89.70462283 107.06981854 83.14731842 111.27955397 75.99609375 115.9140625 C68.5322351 120.64383389 62.41535851 120.72796766 53.72265625 120.85351562 C46.89477874 121.01823082 46.89477874 121.01823082 41.0625 124.375 C38.73670899 127.86368651 38.64384543 129.27218519 39.0625 133.375 C39.89583333 135.875 39.89583333 135.875 42.0625 137.375 C49.09976539 138.78245308 53.10309091 135.85918433 58.984375 132.1796875 C62.65831086 130.02567942 66.32551154 128.68627016 70.34765625 127.3359375 C73.17675184 126.33455978 75.84508768 125.14698023 78.5625 123.875 C80.39556799 123.04108315 82.22889687 122.20773953 84.0625 121.375 C84.90039062 120.97667969 85.73828125 120.57835937 86.6015625 120.16796875 C92.37691925 117.69904736 97.59880705 116.99450021 103.8125 116.9375 C104.52164551 116.9274292 105.23079102 116.9173584 105.96142578 116.90698242 C111.73574013 117.00229714 116.04438126 118.52518529 121 121.5625 C122.87222467 124.75629502 122.69971126 127.85853787 122.0625 131.375 C120.03319395 136.818694 117.99592532 141.11767431 113.0625 144.375 C113.0625 142.065 113.0625 139.755 113.0625 137.375 C111.7425 137.045 110.4225 136.715 109.0625 136.375 C109.0625 135.715 109.0625 135.055 109.0625 134.375 C96.54948069 135.36048131 86.24115498 136.95176873 74.83203125 142.390625 C64.49663353 147.26635152 54.37866147 150.92383352 43.32128906 153.83764648 C33.64365448 156.40427776 24.39002975 159.76236813 15.0625 163.375 C14.0725 163.705 13.0825 164.035 12.0625 164.375 C12.0352585 162.95844207 12.01599533 161.54172955 12 160.125 C11.98839844 159.33609375 11.97679687 158.5471875 11.96484375 157.734375 C12.05928635 155.45264184 12.50508947 153.57871605 13.0625 151.375 C13.15183067 149.8353597 13.19265793 148.292221 13.1875 146.75 C13.19007813 145.97398437 13.19265625 145.19796875 13.1953125 144.3984375 C13.18923369 142.30540752 13.18923369 142.30540752 12.0625 140.375 C11.16304539 133.20885345 12.47999835 126.25543287 13.875 119.25 C14.0402417 118.41549316 14.2054834 117.58098633 14.37573242 116.72119141 C15.5478697 111.12030581 17.13778219 105.76226326 19.0625 100.375 C7.6926385 107.48447361 -2.82017131 116.14034262 -8.9375 128.375 C-9.5975 128.375 -10.2575 128.375 -10.9375 128.375 C-10.03470437 120.58244828 -8.93817771 114.17615211 -4.9375 107.375 C-13.44291194 111.99137542 -20.62912685 117.03052646 -27.9375 123.375 C-29.69350576 118.10698271 -26.13805848 113.01440847 -23.84326172 108.18652344 C-19.95208351 100.40416702 -14.88717546 93.68635786 -8.9375 87.375 C-18.02654456 87.375 -27.94951581 95.35030661 -34.9375 100.375 C-35.9275 101.035 -36.9175 101.695 -37.9375 102.375 C-37.73253906 101.77171875 -37.52757812 101.1684375 -37.31640625 100.546875 C-37.04699219 99.74765625 -36.77757812 98.9484375 -36.5 98.125 C-36.23316406 97.33609375 -35.96632813 96.5471875 -35.69140625 95.734375 C-35.01795292 93.62678012 -34.44599405 91.52746027 -33.9375 89.375 C-46.79694774 99.10972212 -55.01688607 110.49988198 -62.9375 124.375 C-65.29123401 120.84439899 -65.59528415 117.78904244 -66.0625 113.6875 C-66.14886719 112.98560547 -66.23523438 112.28371094 -66.32421875 111.56054688 C-66.53576875 109.83288855 -66.737586 108.1040434 -66.9375 106.375 C-78.44329751 128.04611375 -78.81493076 148.72833446 -73.9375 172.375 C-73.72480469 173.40625 -73.51210938 174.4375 -73.29296875 175.5 C-72.86641423 177.46399202 -72.40789659 179.42104492 -71.9375 181.375 C-86.20632087 168.40334466 -95.68870341 147.29959561 -97.1875 128.18701172 C-97.34566029 124.76728963 -97.41796925 121.36075239 -97.4375 117.9375 C-97.44394531 116.87225098 -97.45039063 115.80700195 -97.45703125 114.70947266 C-97.33659561 107.25520112 -96.0278673 100.52108362 -93.9375 93.375 C-94.59903076 94.03653076 -95.26056152 94.69806152 -95.94213867 95.37963867 C-99.27392578 98.71142578 -102.60571289 102.04321289 -105.9375 105.375 C-103.0656551 82.35737744 -92.62174269 60.59255059 -75.9375 44.375 C-78.2475 44.375 -80.5575 44.375 -82.9375 44.375 C-73.33961045 32.50392608 -61.69960235 24.50368642 -48.9375 16.375 C-47.99519531 15.76398438 -47.05289063 15.15296875 -46.08203125 14.5234375 C-43.9375 13.375 -43.9375 13.375 -40.9375 13.375 C-40.9375 12.715 -40.9375 12.055 -40.9375 11.375 C-42.2575 11.045 -43.5775 10.715 -44.9375 10.375 C-44.9375 9.715 -44.9375 9.055 -44.9375 8.375 C-30.0780504 3.35960229 -15.7485989 0.02348434 0 0 Z " fill="#FAFAFA" transform="translate(484.9375,420.625)"/>
<path d="M0 0 C6.48891767 5.3005403 12.34480119 11.19283477 18.25195312 17.12158203 C19.99238419 18.86736079 21.73808003 20.60774537 23.484375 22.34765625 C28.62331416 27.48388931 33.65954046 32.63009263 38.37597656 38.16210938 C41.52399054 41.72468442 44.97742313 44.99051816 48.375 48.3125 C53.87466358 53.75209658 59.06379062 59.18818152 63.84375 65.2734375 C66.417328 68.52770823 69.10397256 71.67043579 71.8125 74.8125 C72.57300659 75.69651489 72.57300659 75.69651489 73.34887695 76.59838867 C74.38275114 77.7998122 75.41701488 79.00090061 76.45166016 80.20166016 C78.97292963 83.13002202 81.48602191 86.06537921 84 89 C84.48823242 89.56928223 84.97646484 90.13856445 85.47949219 90.72509766 C88.09571916 93.77564239 90.70837732 96.82916102 93.31640625 99.88671875 C93.85974609 100.52287109 94.40308594 101.15902344 94.96289062 101.81445312 C96.00297573 103.03233055 97.04209212 104.25103617 98.08007812 105.47070312 C101.35305679 109.41741529 101.35305679 109.41741529 105 113 C105.66 113 106.32 113 107 113 C109.35242324 110.28426816 111.51450401 107.44443796 113.7109375 104.6015625 C115.79309784 102.23514819 117.1025761 101.09811043 120 100 C128.13935054 110.80774568 136.19954949 121.67118108 144.21337891 132.57226562 C145.98714006 134.98252539 147.76443644 137.39013424 149.54296875 139.796875 C153.03659848 144.52542626 156.52164095 149.26020497 160 154 C160.61423828 154.83644043 161.22847656 155.67288086 161.86132812 156.53466797 C163.68301037 159.01977307 165.49869808 161.50913939 167.3125 164 C167.8701001 164.75998291 168.4277002 165.51996582 169.00219727 166.30297852 C169.51322998 167.00737061 170.0242627 167.7117627 170.55078125 168.4375 C171.22620972 169.36369141 171.22620972 169.36369141 171.9152832 170.30859375 C173 172 173 172 174 175 C161.41076057 175.49466024 148.82396078 175.86362198 136.22685337 176.08805561 C130.37169737 176.1959877 124.52335159 176.34127401 118.67211914 176.58422852 C86.21050919 177.89567068 63.20441318 174.15111232 35.52120972 156.74935913 C30.0117365 153.32345652 24.25024557 150.3942998 18.43692684 147.52126598 C11.24105279 143.87474461 5.7606753 139.32765852 0.8125 132.9375 C-2.67602204 128.56044841 -6.30968681 124.40186088 -10.125 120.3125 C-13.91586924 116.24865981 -17.65602782 112.16030848 -21.29296875 107.95703125 C-23.33633431 105.6144085 -25.41680859 103.30726578 -27.5 101 C-30.77515184 97.37017859 -34.01521208 93.71361219 -37.2265625 90.02734375 C-40.46047858 86.33042207 -43.732083 82.66685752 -47 79 C-46.505 78.01 -46.505 78.01 -46 77 C-43.6628026 78.21940734 -41.32562429 79.43885114 -38.98852539 80.65844727 C-36.9346387 81.72984739 -34.88043333 82.80063677 -32.82592773 83.87084961 C-27.42068533 86.68759657 -22.02090851 89.51385559 -16.6328125 92.36328125 C-15.61453369 92.89985352 -14.59625488 93.43642578 -13.54711914 93.98925781 C-11.60159922 95.01477359 -9.65797629 96.04389874 -7.71655273 97.07714844 C-2.56879512 99.78469011 2.50402655 102.09087238 8 104 C7.80083984 102.329375 7.80083984 102.329375 7.59765625 100.625 C6.53111714 91.47213689 5.69756445 82.36463027 5.24609375 73.16015625 C5.12613985 69.97572194 5.12613985 69.97572194 4 67 C3.71795447 64.04608991 3.48097922 61.10415351 3.28125 58.14453125 C3.21867508 57.2580188 3.15610016 56.37150635 3.09162903 55.45812988 C2.88995126 52.57654305 2.69461568 49.69457178 2.5 46.8125 C2.43307953 45.84057709 2.36615906 44.86865417 2.29721069 43.86727905 C1.29164692 29.25156171 0.44378723 14.64497871 0 0 Z " fill="#FBFBFB" transform="translate(755,855)"/>
<path d="M0 0 C-0.02356567 1.267229 -0.02356567 1.267229 -0.04760742 2.56005859 C-0.54892028 25.9569089 -0.54892028 25.9569089 3 49 C3.29801514 50.24716797 3.29801514 50.24716797 3.60205078 51.51953125 C6.44615109 63.16010358 10.26527636 73.67755087 16.01660156 84.18603516 C17.11875271 86.21904981 18.18894011 88.26543042 19.2421875 90.32421875 C19.57847168 90.97865967 19.91475586 91.63310059 20.26123047 92.30737305 C21 94 21 94 21 96 C21.66 96 22.32 96 23 96 C23.03738281 95.18015625 23.07476562 94.3603125 23.11328125 93.515625 C23.17902344 92.43796875 23.24476563 91.3603125 23.3125 90.25 C23.39951172 88.64898438 23.39951172 88.64898438 23.48828125 87.015625 C24.03090154 83.8178932 24.85071145 82.37401309 27 80 C30.06733757 85.12839443 32.50425782 90.05179515 34.2578125 95.765625 C35.00718895 98.02164252 35.92541704 100.10030441 36.9375 102.25 C47.0511349 124.52315778 48.43609354 148.95782755 48 173 C47.34 173 46.68 173 46 173 C45.8040625 172.36835937 45.608125 171.73671875 45.40625 171.0859375 C41.11393948 158.24600861 34.4205665 147.86458772 25.515625 137.83984375 C23 135 23 135 20.984375 132.19140625 C18.60418259 129.56288668 17.38955481 129.61244292 14 129 C11.9296875 127.171875 11.9296875 127.171875 9.875 124.75 C9.10027344 123.84378906 8.32554687 122.93757812 7.52734375 122.00390625 C6.69332031 121.01261719 5.85929687 120.02132812 5 119 C4.08704458 117.96531719 3.17162484 116.93280419 2.25390625 115.90234375 C-4.07735321 108.718271 -9.24720094 101.32080294 -14 93 C-22.34228018 110.04726818 -24.21651944 127.16573915 -24.625 145.875 C-24.66331912 147.35288405 -24.70237804 148.8307491 -24.7421875 150.30859375 C-24.83661282 153.87221871 -24.92117011 157.4359918 -25 161 C-28.03644448 157.26923932 -30.63440535 153.49442461 -33.125 149.375 C-35.0417909 146.21410331 -36.94940811 143.07588784 -39 140 C-39.22597117 137.08483139 -39.33525304 134.26229616 -39.35400391 131.34448242 C-39.3671463 130.45945038 -39.3802887 129.57441833 -39.39382935 128.66256714 C-39.43331336 125.72686409 -39.45663474 122.79136666 -39.4765625 119.85546875 C-39.48471355 118.84966578 -39.49286461 117.8438628 -39.50126266 116.80758095 C-39.5430097 111.47467496 -39.57159161 106.14187199 -39.59033203 100.80883789 C-39.61235979 95.32897851 -39.68102879 89.85076639 -39.76067543 84.37148571 C-39.8132868 80.13575986 -39.82974078 75.90041623 -39.83689499 71.66439247 C-39.84656965 69.64673157 -39.86963363 67.62908443 -39.90697098 65.61174583 C-40.13485725 52.4727417 -38.97961624 43.72561212 -31 33 C-30.41164368 32.18275452 -29.82328735 31.36550903 -29.21710205 30.52349854 C-27.77479485 28.57237657 -26.26072778 26.72165969 -24.6875 24.875 C-24.13698975 24.21395264 -23.58647949 23.55290527 -23.01928711 22.87182617 C-3.82196009 0 -3.82196009 0 0 0 Z " fill="#F9F9F9" transform="translate(281,616)"/>
<path d="M0 0 C1.76171875 1.609375 1.76171875 1.609375 3.6875 3.75 C4.33074219 4.44609375 4.97398437 5.1421875 5.63671875 5.859375 C7 8 7 8 6.72143555 9.87866211 C5.95716739 12.12594672 5.00024193 14.02305681 3.8203125 16.08203125 C3.38589844 16.84966797 2.95148438 17.61730469 2.50390625 18.40820312 C2.04886719 19.20162109 1.59382813 19.99503906 1.125 20.8125 C-3.0093497 28.03867606 -6.45999479 35.041317 -9 43 C-9.66666667 45 -10.33333333 47 -11 49 C-10.44570313 48.566875 -9.89140625 48.13375 -9.3203125 47.6875 C-8.23363281 46.8521875 -8.23363281 46.8521875 -7.125 46 C-6.04605469 45.1646875 -6.04605469 45.1646875 -4.9453125 44.3125 C-3 43 -3 43 -1 43 C-1.19335938 43.75023437 -1.38671875 44.50046875 -1.5859375 45.2734375 C-1.84632813 46.29695312 -2.10671875 47.32046875 -2.375 48.375 C-2.75785156 49.87160156 -2.75785156 49.87160156 -3.1484375 51.3984375 C-5.04060134 59.40107539 -6.36381937 66.87735468 -6.3125 75.125 C-6.30976074 76.02790771 -6.30702148 76.93081543 -6.30419922 77.86108398 C-6.1574832 87.42039131 -5.32075661 97.35848678 -1 106 C1.64 101.38 4.28 96.76 7 92 C7.66 92 8.32 92 9 92 C9.05607422 93.83498047 9.05607422 93.83498047 9.11328125 95.70703125 C10.02097835 120.80070732 15.20442058 143.41995826 25.91699219 166.26831055 C27.2244464 169.06600199 28 170.86345197 28 174 C10.33644341 161.95429055 -12.19079135 145.1223598 -17 123 C-17.66 123 -18.32 123 -19 123 C-19.64974205 125.68660783 -20.29488418 128.37418674 -20.9375 131.0625 C-21.11990234 131.81466797 -21.30230469 132.56683594 -21.49023438 133.34179688 C-22.57166155 137.88379101 -23.41552811 142.36729123 -24 147 C-35.37590408 133.18640219 -37.1776818 113.30062301 -37.1875 96.1875 C-37.19974609 95.07568359 -37.21199219 93.96386719 -37.22460938 92.81835938 C-37.23717279 85.66140179 -36.55009236 78.98815007 -35 72 C-40.27617868 76.26584659 -44.7256758 80.90509863 -49.1796875 86.0234375 C-50.08074219 87.00183594 -50.08074219 87.00183594 -51 88 C-51.33 88 -51.66 88 -52 88 C-52.31631846 82.10066067 -51.23346257 77.24891655 -49.5 71.625 C-49.23155273 70.75012939 -48.96310547 69.87525879 -48.68652344 68.97387695 C-43.61051713 53.02834519 -19.06344286 0 0 0 Z " fill="#F8F8F9" transform="translate(360,487)"/>
<path d="M0 0 C0.33 0 0.66 0 1 0 C1 44.22 1 88.44 1 134 C-43.22 134 -87.44 134 -133 134 C-133 133.67 -133 133.34 -133 133 C-132.35264893 132.89042969 -131.70529785 132.78085938 -131.03833008 132.66796875 C-97.20265062 126.79647442 -68.77255891 113.85111895 -44 90 C-43.23300781 89.30777344 -42.46601562 88.61554688 -41.67578125 87.90234375 C-17.40640202 65.28868518 -5.45805929 31.83867917 0 0 Z " fill="#000000" transform="translate(1253,1120)"/>
<path d="M0 0 C0.33 0 0.66 0 1 0 C1.27263672 1.75763672 1.27263672 1.75763672 1.55078125 3.55078125 C7.93324436 43.89414548 28.19471055 81.29569122 61.6328125 105.6640625 C83.69838788 121.20702792 108.96076193 131.6690312 136 134 C136 134.33 136 134.66 136 135 C91.12 135 46.24 135 0 135 C0 90.45 0 45.9 0 0 Z " fill="#000000" transform="translate(0,1119)"/>
<path d="M0 0 C44.88 0 89.76 0 136 0 C136 44.22 136 88.44 136 134 C135.67 134 135.34 134 135 134 C134.87995605 133.33170166 134.75991211 132.66340332 134.63623047 131.97485352 C128.46022614 98.11140925 116.06304141 69.95426517 92 45 C91.28457031 44.22140625 90.56914063 43.4428125 89.83203125 42.640625 C73.89646905 25.77822897 50.50253407 12.53086603 28.11328125 6.60546875 C26 6 26 6 23.68554688 5.01538086 C21.03969605 4.01500871 18.71402095 3.52581878 15.91796875 3.1484375 C14.52094727 2.95507812 14.52094727 2.95507812 13.09570312 2.7578125 C12.13599609 2.63148437 11.17628906 2.50515625 10.1875 2.375 C9.20845703 2.2409375 8.22941406 2.106875 7.22070312 1.96875 C4.81451838 1.64010038 2.40769281 1.31737913 0 1 C0 0.67 0 0.34 0 0 Z " fill="#000000" transform="translate(1118,0)"/>
<path d="M0 0 C44.55 0 89.1 0 135 0 C135 0.33 135 0.66 135 1 C134.25878906 1.09796875 133.51757812 1.1959375 132.75390625 1.296875 C98.89588837 6.10413335 69.61293826 20.28082766 45 44 C44.15953125 44.76570313 43.3190625 45.53140625 42.453125 46.3203125 C18.67519464 68.6594509 4.99674012 102.06952186 1 134 C0.67 134 0.34 134 0 134 C0 89.78 0 45.56 0 0 Z " fill="#000000" transform="translate(0,0)"/>
<path d="M0 0 C5.40520765 3.44514029 10.13741953 7.85162712 14.84472656 12.17578125 C14.18472656 12.83578125 13.52472656 13.49578125 12.84472656 14.17578125 C8.29481141 13.77431815 4.0653408 11.82110544 -0.15527344 10.17578125 C0.50472656 12.15578125 1.16472656 14.13578125 1.84472656 16.17578125 C-1.48003988 15.55704669 -3.56141958 14.34473378 -6.28027344 12.36328125 C-14.76221304 6.62102198 -22.78704068 3.65919024 -33.15527344 5.17578125 C-35.82469052 6.25283301 -37.770894 7.51708251 -40.15527344 9.17578125 C-40.81527344 9.17578125 -41.47527344 9.17578125 -42.15527344 9.17578125 C-42.15527344 9.83578125 -42.15527344 10.49578125 -42.15527344 11.17578125 C-40.17527344 11.50578125 -38.19527344 11.83578125 -36.15527344 12.17578125 C-36.15527344 12.83578125 -36.15527344 13.49578125 -36.15527344 14.17578125 C-37.79860848 15.21367706 -39.46771211 16.21146049 -41.15527344 17.17578125 C-44.4493243 20.46983211 -44.37213739 24.15065756 -44.53027344 28.67578125 C-44.49606196 35.66347527 -42.12935909 40.9662509 -39.15527344 47.17578125 C-38.47605046 48.83737036 -37.80515158 50.50249687 -37.15527344 52.17578125 C-38.47527344 52.17578125 -39.79527344 52.17578125 -41.15527344 52.17578125 C-40.16527344 55.14578125 -39.17527344 58.11578125 -38.15527344 61.17578125 C-42.37686524 61.17578125 -43.47104828 60.64972848 -46.51074219 57.91015625 C-56.11210824 47.78425001 -59.86163048 36.98314446 -59.76220703 23.24121094 C-59.35476562 13.52827102 -55.88058494 6.45286009 -48.90527344 -0.32421875 C-33.86935761 -12.35295141 -15.68456964 -8.99147631 0 0 Z " fill="#F3F4F5" transform="translate(414.1552734375,421.82421875)"/>
<path d="M0 0 C9.22476848 6.85806403 9.22476848 6.85806403 11.0546875 11.9140625 C10.95166631 17.72740113 6.36369201 21.725324 2.45361328 25.68652344 C-3.40068262 30.97643139 -10.71329979 33.13393412 -18.4375 33.1875 C-19.36433594 33.20167969 -20.29117187 33.21585937 -21.24609375 33.23046875 C-24.17833373 32.98507562 -26.33861389 32.22201577 -29 31 C-29 30.67 -29 30.34 -29 30 C-28.443125 29.97421875 -27.88625 29.9484375 -27.3125 29.921875 C-21.31706452 29.47626831 -17.23258464 27.94927498 -12 25 C-13.08667969 24.92652344 -13.08667969 24.92652344 -14.1953125 24.8515625 C-15.16210938 24.77679688 -16.12890625 24.70203125 -17.125 24.625 C-18.55199219 24.52058594 -18.55199219 24.52058594 -20.0078125 24.4140625 C-23 24 -23 24 -25.84375 22.96875 C-29.793012 21.75660028 -33.2771219 21.77866652 -37.375 21.875 C-38.11105469 21.88402344 -38.84710938 21.89304687 -39.60546875 21.90234375 C-41.4037888 21.92569856 -43.20193911 21.96156164 -45 22 C-42.49060237 15.63222219 -35.55639572 10.94870998 -29.71875 7.75 C-27.8125 6.9375 -27.8125 6.9375 -25 6 C-28.3 6 -31.6 6 -35 6 C-26.80364497 -3.5624142 -10.91936078 -6.60143865 0 0 Z " fill="#0C223B" transform="translate(519,450)"/>
<path d="M0 0 C0.33 0 0.66 0 1 0 C3.6766466 12.12107446 0.93137011 23.22217366 -2 35 C-2.66 35 -3.32 35 -4 35 C-4.515625 33.80375 -5.03125 32.6075 -5.5625 31.375 C-7.186496 28.03320319 -8.76513957 26.19172307 -11.75 24 C-13.76790718 22.39959086 -14.82953123 21.52845318 -15.625 19.0625 C-15.86083866 15.17116209 -15.14207527 13.22915365 -13.0625 9.875 C-10.09234456 6.7507731 -6.51998528 4.48859998 -2.890625 2.19921875 C-1.0648157 1.13760474 -1.0648157 1.13760474 0 0 Z " fill="#F0F1F3" transform="translate(621,503)"/>
<path d="M0 0 C2.79593448 2.65613776 3.90760109 3.96051225 4.25 7.8125 C4.1675 8.534375 4.085 9.25625 4 10 C2.94232422 9.53207031 2.94232422 9.53207031 1.86328125 9.0546875 C-3.47232467 7.08932106 -9.92628474 5.8813692 -15.3828125 7.8671875 C-16.70916591 8.59844698 -18.02536297 9.34858817 -19.328125 10.12109375 C-21 11 -21 11 -23.6875 11.0625 C-26.80981144 9.62792447 -28.72349236 7.53667994 -31 5 C-21.09873033 -1.6622905 -11.44451545 -6.23117869 0 0 Z " fill="#EFF0F2" transform="translate(606,420)"/>
<path d="M0 0 C0 1.65 0 3.3 0 5 C1.32 5 2.64 5 4 5 C4 5.99 4 6.98 4 8 C5.258125 8.268125 6.51625 8.53625 7.8125 8.8125 C11.18450169 9.53112331 12.65230802 10.51197276 15 13 C13.99098633 12.99476318 12.98197266 12.98952637 11.94238281 12.98413086 C8.19271738 12.96600738 4.44305582 12.95454112 0.69335938 12.94506836 C-0.92839204 12.94004495 -2.55013895 12.93322506 -4.171875 12.92456055 C-6.50521969 12.91240771 -8.8385044 12.90675172 -11.171875 12.90234375 C-11.89493835 12.89718246 -12.61800171 12.89202118 -13.36297607 12.88670349 C-16.7201275 12.88633082 -19.79106108 12.95092381 -23 14 C-22.01 12.68 -21.02 11.36 -20 10 C-20.33 9.34 -20.66 8.68 -21 8 C-21 7.67 -21 7.34 -21 7 C-22.32 6.67 -23.64 6.34 -25 6 C-19.00679849 4.54066252 -13.14154225 3.58490879 -7 3 C-7 2.34 -7 1.68 -7 1 C-1.125 0 -1.125 0 0 0 Z " fill="#22374F" transform="translate(606,463)"/>
<path d="M0 0 C3.97023748 1.56182136 7.45677602 3.63785068 11 6 C11 6.66 11 7.32 11 8 C10.195625 8.28875 9.39125 8.5775 8.5625 8.875 C5.8673532 9.73262568 5.8673532 9.73262568 5 12 C2.93690624 11.88521587 0.87451646 11.75773802 -1.1875 11.625 C-2.33605469 11.55539062 -3.48460937 11.48578125 -4.66796875 11.4140625 C-7.79959117 11.02490426 -10.15285809 10.3190149 -13 9 C-10.62638129 1.87914386 -7.72958247 -1.030611 0 0 Z " fill="#0B1C31" transform="translate(585,452)"/>
<path d="M0 0 C0.495 0.99 0.495 0.99 1 2 C-0.00901367 1.99476318 -1.01802734 1.98952637 -2.05761719 1.98413086 C-5.80728262 1.96600738 -9.55694418 1.95454112 -13.30664062 1.94506836 C-14.92839204 1.94004495 -16.55013895 1.93322506 -18.171875 1.92456055 C-20.50521969 1.91240771 -22.8385044 1.90675172 -25.171875 1.90234375 C-25.89493835 1.89718246 -26.61800171 1.89202118 -27.36297607 1.88670349 C-30.7201275 1.88633082 -33.79106108 1.95092381 -37 3 C-35.31349267 -0.37301465 -33.9794331 -1.00709204 -30.375 -2.25 C-20.68385845 -4.0163657 -8.84513448 -4.79111451 0 0 Z " fill="#CBD1D7" transform="translate(620,474)"/>
<path d="M0 0 C3.5875213 1.33250791 6.8364623 2.830717 10 5 C10 5.66 10 6.32 10 7 C9.195625 7.28875 8.39125 7.5775 7.5625 7.875 C4.8673532 8.73262568 4.8673532 8.73262568 4 11 C1.87436897 10.88623383 -0.2505261 10.75864369 -2.375 10.625 C-3.55835938 10.55539062 -4.74171875 10.48578125 -5.9609375 10.4140625 C-9 10 -9 10 -11 8 C-8.36 8 -5.72 8 -3 8 C-3 6.68 -3 5.36 -3 4 C-2.34 3.67 -1.68 3.34 -1 3 C-0.67 2.01 -0.34 1.02 0 0 Z M0 5 C1 7 1 7 1 7 Z " fill="#293E56" transform="translate(586,453)"/>
<path d="M0 0 C0.66 0 1.32 0 2 0 C3.375 1.40722656 3.375 1.40722656 5 3.390625 C7.81351822 6.70322166 10.74726272 9.77875468 13.875 12.796875 C14.71417969 13.61027344 15.55335938 14.42367187 16.41796875 15.26171875 C18.16334886 16.94372651 19.9161805 18.61803087 21.67578125 20.28515625 C22.50464844 21.09339844 23.33351563 21.90164063 24.1875 22.734375 C24.94417969 23.45850586 25.70085938 24.18263672 26.48046875 24.92871094 C28 27 28 27 27.73828125 29.26660156 C27.49464844 29.83862305 27.25101563 30.41064453 27 31 C26.59620117 30.52401367 26.19240234 30.04802734 25.77636719 29.55761719 C21.16875899 24.2007198 16.28830556 19.20037701 11.25 14.25 C9.75284743 12.77843978 8.25796734 11.30456316 6.765625 9.828125 C6.11368164 9.1877832 5.46173828 8.54744141 4.79003906 7.88769531 C0 2.83633388 0 2.83633388 0 0 Z " fill="#202D46" transform="translate(785,883)"/>
<path d="M0 0 C1.65 1.65 3.3 3.3 5 5 C-4.41002278 15.55808656 -4.41002278 15.55808656 -9 20 C-7.32073668 15.63221913 -5.36694083 11.41834992 -3.375 7.1875 C-2.88773437 6.14819336 -2.88773437 6.14819336 -2.390625 5.08789062 C-1.59500115 3.39133977 -0.79767301 1.69558835 0 0 Z " fill="#E5E7EA" transform="translate(460,932)"/>
<path d="M0 0 C0.99 0.33 1.98 0.66 3 1 C-0.90510489 6.50719921 -5.09717644 11.35827355 -10 16 C-10.99 15.67 -11.98 15.34 -13 15 C-8.70214922 9.96836982 -4.36574458 4.97281557 0 0 Z " fill="#0E243B" transform="translate(506,763)"/>
<path d="M0 0 C0.99 0.33 1.98 0.66 3 1 C1.55922954 4.36179774 -0.24750021 6.59156268 -3 9 C-3.66 9 -4.32 9 -5 9 C-5.24492187 9.58265625 -5.48984375 10.1653125 -5.7421875 10.765625 C-7.20435874 13.36302236 -8.84740414 14.83975831 -11.125 16.75 C-12.21167969 17.67039062 -12.21167969 17.67039062 -13.3203125 18.609375 C-13.87460937 19.06828125 -14.42890625 19.5271875 -15 20 C-15.66 19.67 -16.32 19.34 -17 19 C-16.57589844 18.5875 -16.15179688 18.175 -15.71484375 17.75 C-10.0559615 12.17817748 -4.71242645 6.40151906 0 0 Z " fill="#E4E7EB" transform="translate(514,710)"/>
<path d="M0 0 C0.33 0 0.66 0 1 0 C1.06058594 1.09699219 1.12117187 2.19398438 1.18359375 3.32421875 C1.26804498 4.77865654 1.35269066 6.23308305 1.4375 7.6875 C1.49647461 8.7693457 1.49647461 8.7693457 1.55664062 9.87304688 C1.73290739 12.84246388 1.93351415 15.67539261 2.53125 18.59375 C3.13604214 21.69834967 3.09441583 24.65283246 3.0625 27.8125 C3.05347656 28.97394531 3.04445313 30.13539063 3.03515625 31.33203125 C3.02355469 32.21246094 3.01195312 33.09289062 3 34 C1.02 33.67 -0.96 33.34 -3 33 C-2.360625 32.79375 -1.72125 32.5875 -1.0625 32.375 C1.34925077 31.10461791 1.34925077 31.10461791 1.75 27.875 C1.8325 26.92625 1.915 25.9775 2 25 C1.34 25 0.68 25 0 25 C-1.12298921 16.53438902 -0.80542989 8.48799189 0 0 Z " fill="#2A384C" transform="translate(760,925)"/>
<path d="M0 0 C0 3.69913551 -0.78307978 4.18491901 -3.25 6.8125 C-6.2074698 10.05791817 -8.67572708 13.28116333 -11 17 C-11.33 16.34 -11.66 15.68 -12 15 C-11.22265625 13.0546875 -11.22265625 13.0546875 -10.0625 10.875 C-9.49208984 9.78832031 -9.49208984 9.78832031 -8.91015625 8.6796875 C-8.60980469 8.12539063 -8.30945313 7.57109375 -8 7 C-9.32 6.34 -10.64 5.68 -12 5 C-8.04 3.35 -4.08 1.7 0 0 Z " fill="#1D2C44" transform="translate(476,506)"/>
<path d="M0 0 C0.99 0.33 1.98 0.66 3 1 C-0.00168774 4.7163753 -3.1059584 8.26217771 -6.625 11.5 C-7.17414062 12.0053125 -7.72328125 12.510625 -8.2890625 13.03125 C-10 14 -10 14 -12.2109375 13.65625 C-13.09652344 13.33140625 -13.09652344 13.33140625 -14 13 C-13.15695312 12.22914063 -12.31390625 11.45828125 -11.4453125 10.6640625 C-10.33851968 9.65106568 -9.23175006 8.63804353 -8.125 7.625 C-7.56941406 7.11710938 -7.01382813 6.60921875 -6.44140625 6.0859375 C-4.25988219 4.0883974 -2.09183907 2.09183907 0 0 Z " fill="#13253C" transform="translate(541,969)"/>
<path d="M0 0 C1.67110042 2.96178773 2.32682752 5.37071192 2.625 8.75 C2.69976563 9.54921875 2.77453125 10.3484375 2.8515625 11.171875 C2.92503906 12.07679688 2.92503906 12.07679688 3 13 C1.84775972 12.07038578 0.70340824 11.1309875 -0.4375 10.1875 C-1.07558594 9.66542969 -1.71367188 9.14335938 -2.37109375 8.60546875 C-4 7 -4 7 -5 4 C-4.34 4 -3.68 4 -3 4 C-3 3.34 -3 2.68 -3 2 C-2.01 1.34 -1.02 0.68 0 0 Z " fill="#0E1B2D" transform="translate(640,754)"/>
<path d="M0 0 C0.33 0.66 0.66 1.32 1 2 C0.04287109 2.07347656 0.04287109 2.07347656 -0.93359375 2.1484375 C-1.75988281 2.22320312 -2.58617187 2.29796875 -3.4375 2.375 C-4.67306641 2.47941406 -4.67306641 2.47941406 -5.93359375 2.5859375 C-6.95646484 2.79089844 -6.95646484 2.79089844 -8 3 C-8.33 3.66 -8.66 4.32 -9 5 C-7.68 5.33 -6.36 5.66 -5 6 C-11.0546875 6.9765625 -11.0546875 6.9765625 -13 7 C-13.66 6.34 -14.32 5.68 -15 5 C-15 4.67 -15 4.34 -15 4 C-16.32 3.67 -17.64 3.34 -19 3 C-12.66226532 1.46667709 -6.49850211 0.51553879 0 0 Z " fill="#34455B" transform="translate(600,466)"/>
<path d="M0 0 C2.64 1.32 5.28 2.64 8 4 C7.01 4.495 7.01 4.495 6 5 C6 5.66 6 6.32 6 7 C2.23375329 8.25541557 0.62811066 7.37061958 -3 6 C-3 5.01 -3 4.02 -3 3 C-2.01 2.67 -1.02 2.34 0 2 C0 1.34 0 0.68 0 0 Z " fill="#1B273D" transform="translate(615,466)"/>
<path d="M0 0 C0.28875 0.598125 0.5775 1.19625 0.875 1.8125 C2.04742026 4.19327792 2.04742026 4.19327792 4 7 C1.03 11.95 1.03 11.95 -2 17 C-3.30211046 13.09366863 -2.47812346 10.80461827 -1.5625 6.8125 C-1.27503906 5.54019531 -0.98757812 4.26789062 -0.69140625 2.95703125 C-0.46324219 1.98121094 -0.23507813 1.00539063 0 0 Z " fill="#261E34" transform="translate(245,646)"/>
<path d="M0 0 C-0.66 2.97 -1.32 5.94 -2 9 C-2.33 8.34 -2.66 7.68 -3 7 C-4.423125 7.2784375 -4.423125 7.2784375 -5.875 7.5625 C-9 8 -9 8 -11 7 C-9.71919608 4.43839216 -8.5434419 4.23538607 -6 3 C-5.29875 2.46375 -4.5975 1.9275 -3.875 1.375 C-2 0 -2 0 0 0 Z " fill="#D6DBDF" transform="translate(359,530)"/>
<path d="M0 0 C2 3 2 3 1.5625 5.5 C1.376875 6.325 1.19125 7.15 1 8 C1.33 8.99 1.66 9.98 2 11 C-1.75 14 -1.75 14 -4 14 C-3.36843005 8.94744036 -1.86540627 4.70406799 0 0 Z " fill="#1F334B" transform="translate(353,522)"/>
<path d="M0 0 C0.66 0.33 1.32 0.66 2 1 C1.34 4.63 0.68 8.26 0 12 C-0.33 10.68 -0.66 9.36 -1 8 C-2.65 7.67 -4.3 7.34 -6 7 C-4.02 4.69 -2.04 2.38 0 0 Z " fill="#213249" transform="translate(324,558)"/>
<path d="M0 0 C-1.59092052 4.13639336 -4.60474918 7.23213248 -8 10 C-8.66 10 -9.32 10 -10 10 C-10 10.66 -10 11.32 -10 12 C-11.65 12.66 -13.3 13.32 -15 14 C-3.28571429 0 -3.28571429 0 0 0 Z " fill="#E8EBEE" transform="translate(360,487)"/>
<path d="M0 0 C0.99 0.33 1.98 0.66 3 1 C0.68116787 5.50884026 -2.06451569 7.93906776 -6 11 C-6.66 10.34 -7.32 9.68 -8 9 C-7.50628906 8.51789062 -7.01257813 8.03578125 -6.50390625 7.5390625 C-5.86324219 6.90742187 -5.22257813 6.27578125 -4.5625 5.625 C-3.92441406 4.99851562 -3.28632812 4.37203125 -2.62890625 3.7265625 C-0.92117824 2.08276939 -0.92117824 2.08276939 0 0 Z " fill="#152A44" transform="translate(550,714)"/>
<path d="M0 0 C0.66 0.66 1.32 1.32 2 2 C0.6875 3.5 0.6875 3.5 -1 5 C-1.99 5 -2.98 5 -4 5 C-4 5.66 -4 6.32 -4 7 C-6.3125 9.1875 -6.3125 9.1875 -9 11 C-9.99 10.67 -10.98 10.34 -12 10 C-10.76304382 7.52608764 -9.34966107 6.62978833 -7.125 5 C-6.07699219 4.2265625 -6.07699219 4.2265625 -5.0078125 3.4375 C-3.361548 2.25885148 -1.68464998 1.12309999 0 0 Z " fill="#13263F" transform="translate(467,535)"/>
<path d="M0 0 C0.66 0 1.32 0 2 0 C2 5.28 2 10.56 2 16 C1.67 16 1.34 16 1 16 C1 13.03 1 10.06 1 7 C-0.65 7.33 -2.3 7.66 -4 8 C-2.68 5.36 -1.36 2.72 0 0 Z " fill="#D3D9DE" transform="translate(367,579)"/>
<path d="M0 0 C0.66 0.99 1.32 1.98 2 3 C2.99 3.33 3.98 3.66 5 4 C3.35 6.97 1.7 9.94 0 13 C-0.66 13 -1.32 13 -2 13 C-1.34 8.71 -0.68 4.42 0 0 Z " fill="#C9CED5" transform="translate(476,536)"/>
<path d="M0 0 C3.84766567 0.76953313 5.2397053 2.2397053 8 5 C8.40047444 7.32275177 8.7397104 9.65739357 9 12 C8.34 12 7.68 12 7 12 C4.20030195 8.20686071 2.02393957 4.2502731 0 0 Z " fill="#2F3B4E" transform="translate(544,439)"/>
<path d="M0 0 C10.55808656 -0.55353075 10.55808656 -0.55353075 15 3 C11.32192463 4.22602512 9.11756073 3.70295577 5.3125 3.0625 C4.13300781 2.86785156 2.95351563 2.67320312 1.73828125 2.47265625 C0.83464844 2.31667969 -0.06898438 2.16070312 -1 2 C-0.67 1.34 -0.34 0.68 0 0 Z " fill="#EEF0F2" transform="translate(606,472)"/>
<path d="M0 0 C2.64 0 5.28 0 8 0 C8 0.99 8 1.98 8 3 C7.195625 3.12375 6.39125 3.2475 5.5625 3.375 C4.2940625 3.684375 4.2940625 3.684375 3 4 C2.67 4.66 2.34 5.32 2 6 C1.01 5.67 0.02 5.34 -1 5 C-0.67 3.35 -0.34 1.7 0 0 Z " fill="#DCE0E5" transform="translate(498,463)"/>
<path d="M0 0 C0.33 1.32 0.66 2.64 1 4 C-1.3125 6.625 -1.3125 6.625 -4 9 C-4.66 9.66 -5.32 10.32 -6 11 C-6.99 10.67 -7.98 10.34 -9 10 C-6.03 6.7 -3.06 3.4 0 0 Z " fill="#1A2E46" transform="translate(538,854)"/>
<path d="M0 0 C0.66 0 1.32 0 2 0 C2.66 1.98 3.32 3.96 4 6 C3.01 5.67 2.02 5.34 1 5 C1 6.65 1 8.3 1 10 C-0.98 10.99 -0.98 10.99 -3 12 C-2.69106068 10.3743193 -2.3777305 8.74947252 -2.0625 7.125 C-1.88847656 6.22007812 -1.71445312 5.31515625 -1.53515625 4.3828125 C-1 2 -1 2 0 0 Z " fill="#2D3D53" transform="translate(341,610)"/>
<path d="M0 0 C1.78409802 3.06246747 2.22880021 5.22079273 2.125 8.75 C2.10695313 9.54921875 2.08890625 10.3484375 2.0703125 11.171875 C2.03550781 12.07679688 2.03550781 12.07679688 2 13 C1.67 13 1.34 13 1 13 C1 11.35 1 9.7 1 8 C0.34 8 -0.32 8 -1 8 C-1.33 8.99 -1.66 9.98 -2 11 C-2 7.7 -2 4.4 -2 1 C-1.34 0.67 -0.68 0.34 0 0 Z " fill="#052343" transform="translate(626,507)"/>
<path d="M0 0 C0.99 0.66 1.98 1.32 3 2 C0.69 4.31 -1.62 6.62 -4 9 C-5.32 8.34 -6.64 7.68 -8 7 C-5.36 4.69 -2.72 2.38 0 0 Z " fill="#13253A" transform="translate(557,955)"/>
<path d="M0 0 C4 4 8 8 12 12 C11.01 13.485 11.01 13.485 10 15 C9.16855469 13.95199219 9.16855469 13.95199219 8.3203125 12.8828125 C7.59585937 11.97273437 6.87140625 11.06265625 6.125 10.125 C5.40570313 9.22007812 4.68640625 8.31515625 3.9453125 7.3828125 C2.06439526 4.99734824 2.06439526 4.99734824 0 3 C0 2.01 0 1.02 0 0 Z " fill="#1A2A41" transform="translate(282,730)"/>
<path d="M0 0 C5.77759884 -0.12036664 11.27959989 0.1679418 17 1 C17 1.33 17 1.66 17 2 C11.06 2.33 5.12 2.66 -1 3 C-0.67 2.01 -0.34 1.02 0 0 Z " fill="#04142B" transform="translate(592,468)"/>
<path d="M0 0 C0 3 0 3 -2.1875 5.48046875 C-3.115625 6.37378906 -4.04375 7.26710938 -5 8.1875 C-5.928125 9.08855469 -6.85625 9.98960937 -7.8125 10.91796875 C-8.534375 11.60503906 -9.25625 12.29210937 -10 13 C-10.66 12.67 -11.32 12.34 -12 12 C-10.37860535 10.18415766 -8.75313264 8.3722838 -7.125 6.5625 C-6.66480469 6.04623047 -6.20460938 5.52996094 -5.73046875 4.99804688 C-2.2265625 1.11328125 -2.2265625 1.11328125 0 0 Z " fill="#161C32" transform="translate(361,411)"/>
<path d="M0 0 C0.74609375 1.703125 0.74609375 1.703125 1 4 C-0.65234375 6.359375 -0.65234375 6.359375 -2.9375 8.75 C-4.06478516 9.94882812 -4.06478516 9.94882812 -5.21484375 11.171875 C-5.80394531 11.77515625 -6.39304687 12.3784375 -7 13 C-7.66 12.01 -8.32 11.02 -9 10 C-8.27683594 9.29423828 -8.27683594 9.29423828 -7.5390625 8.57421875 C-6.90742188 7.95160156 -6.27578125 7.32898438 -5.625 6.6875 C-4.68527344 5.76517578 -4.68527344 5.76517578 -3.7265625 4.82421875 C-1.81913393 2.91187472 -1.81913393 2.91187472 0 0 Z " fill="#182B43" transform="translate(307,934)"/>
<path d="M0 0 C4.95 0 9.9 0 15 0 C11.0377276 1.9811362 7.15252251 3.47740841 3 5 C1.5 3.625 1.5 3.625 0 2 C0 1.34 0 0.68 0 0 Z " fill="#EBECED" transform="translate(483,455)"/>
<path d="M0 0 C0.66 1.32 1.32 2.64 2 4 C-0.64 5.98 -3.28 7.96 -6 10 C-5.25 4.25 -5.25 4.25 -3 2 C-2.67 2.33 -2.34 2.66 -2 3 C-1.34 2.01 -0.68 1.02 0 0 Z " fill="#D9DDE1" transform="translate(462,534)"/>
<path d="M0 0 C0.33 0.99 0.66 1.98 1 3 C-1.37705019 7.29697535 -4.03381225 10.13553107 -8 13 C-8.33 12.01 -8.66 11.02 -9 10 C-8.27683594 9.29423828 -8.27683594 9.29423828 -7.5390625 8.57421875 C-6.90742188 7.95160156 -6.27578125 7.32898438 -5.625 6.6875 C-4.68527344 5.76517578 -4.68527344 5.76517578 -3.7265625 4.82421875 C-1.81913393 2.91187472 -1.81913393 2.91187472 0 0 Z " fill="#192841" transform="translate(317,923)"/>
<path d="M0 0 C1.33332095 2.6666419 0.67102033 4.16680303 0 7 C-0.66 6.67 -1.32 6.34 -2 6 C-3.65 7.65 -5.3 9.3 -7 11 C-7.33 10.01 -7.66 9.02 -8 8 C-5.36 5.36 -2.72 2.72 0 0 Z " fill="#19273D" transform="translate(391,513)"/>
<path d="M0 0 C0.33 0 0.66 0 1 0 C1.33 6.6 1.66 13.2 2 20 C1.34 20 0.68 20 0 20 C-1.01593448 13.11422188 -0.83854735 6.90188971 0 0 Z " fill="#3B4A5E" transform="translate(354,441)"/>
<path d="M0 0 C3.26460973 1.80412643 4.88929795 2.83394693 7 6 C4.6875 6.6875 4.6875 6.6875 2 7 C0.125 5.8125 0.125 5.8125 -1 4 C-0.6875 1.8125 -0.6875 1.8125 0 0 Z " fill="#D9DDE0" transform="translate(422,429)"/>
<path d="M0 0 C1 3 1 3 -0.1875 5.5 C-1.94150569 7.9193182 -3.51794573 9.37382651 -6 11 C-6.33 10.01 -6.66 9.02 -7 8 C-5.56640625 5.95703125 -5.56640625 5.95703125 -3.5625 3.8125 C-2.90378906 3.09707031 -2.24507812 2.38164063 -1.56640625 1.64453125 C-1.04949219 1.10183594 -0.53257812 0.55914063 0 0 Z " fill="#17283F" transform="translate(530,736)"/>
<path d="M0 0 C-0.5 1.9375 -0.5 1.9375 -2 4 C-4.69658452 4.68790422 -7.2017019 4.81946464 -10 5 C-9.67 4.01 -9.34 3.02 -9 2 C-5.82757352 0.68964993 -3.44118336 0 0 0 Z " fill="#C3CAD1" transform="translate(596,494)"/>
<path d="M0 0 C0.99 0 1.98 0 3 0 C2.67 2.31 2.34 4.62 2 7 C1.01 7.33 0.02 7.66 -1 8 C-1.33 8.66 -1.66 9.32 -2 10 C-1.125 2.25 -1.125 2.25 0 0 Z " fill="#CCD2D8" transform="translate(534,882)"/>
<path d="M0 0 C0.33 0 0.66 0 1 0 C1 7.26 1 14.52 1 22 C0.01 21.01 -0.98 20.02 -2 19 C-2 18.34 -2 17.68 -2 17 C-1.34 17 -0.68 17 0 17 C0 11.39 0 5.78 0 0 Z " fill="#E5E6E9" transform="translate(255,755)"/>
<path d="M0 0 C0.99 0.33 1.98 0.66 3 1 C0.03 4.96 0.03 4.96 -3 9 C-3.99 8.34 -4.98 7.68 -6 7 C-4.02 4.69 -2.04 2.38 0 0 Z " fill="#EEEFF0" transform="translate(539,722)"/>
<path d="M0 0 C2 3 2 3 1.86328125 5.2265625 C1.68152344 6.01804687 1.49976563 6.80953125 1.3125 7.625 C1.14363281 8.42164063 0.97476563 9.21828125 0.80078125 10.0390625 C0.40439453 11.00972656 0.40439453 11.00972656 0 12 C-0.99 12.33 -1.98 12.66 -3 13 C-3.31563182 7.73946963 -2.66590937 4.55426184 0 0 Z " fill="#2D4057" transform="translate(570,477)"/>
<path d="M0 0 C0.66 0.66 1.32 1.32 2 2 C0.02 4.31 -1.96 6.62 -4 9 C-4.66 8.67 -5.32 8.34 -6 8 C-4.55746343 4.63408134 -2.66735273 2.48952921 0 0 Z " fill="#E9EBED" transform="translate(316,921)"/>
<path d="M0 0 C0.99 0.33 1.98 0.66 3 1 C1.35 4.3 -0.3 7.6 -2 11 C-2.66 10.67 -3.32 10.34 -4 10 C-2.8905928 6.51329166 -1.73662334 3.22515763 0 0 Z " fill="#112740" transform="translate(471,905)"/>
<path d="M0 0 C0.66 0.33 1.32 0.66 2 1 C-0.31 5.62 -2.62 10.24 -5 15 C-6.25541557 11.23375329 -5.37061958 9.62811066 -4 6 C-3.34 6 -2.68 6 -2 6 C-1.34 4.02 -0.68 2.04 0 0 Z " fill="#13233A" transform="translate(516,816)"/>
<path d="M0 0 C3.21043882 1.38188453 5.04936365 2.92421903 7.25 5.625 C8.03117188 6.57246094 8.03117188 6.57246094 8.828125 7.5390625 C9.40820312 8.26222656 9.40820312 8.26222656 10 9 C7 9 7 9 4.8125 7.125 C3 5 3 5 3 3 C2.01 2.67 1.02 2.34 0 2 C0 1.34 0 0.68 0 0 Z " fill="#0B223C" transform="translate(631,795)"/>
<path d="M0 0 C4 4.75 4 4.75 4 7 C1.69 7 -0.62 7 -3 7 C-1.125 1.125 -1.125 1.125 0 0 Z " fill="#1B293E" transform="translate(267,708)"/>
<path d="M0 0 C0.928125 1.175625 0.928125 1.175625 1.875 2.375 C3.89858661 4.96837647 3.89858661 4.96837647 6 7 C5.01 7 4.02 7 3 7 C3 7.66 3 8.32 3 9 C2.01 9 1.02 9 0 9 C0 8.34 0 7.68 0 7 C-0.66 6.67 -1.32 6.34 -2 6 C-1.34 6 -0.68 6 0 6 C0 4.02 0 2.04 0 0 Z " fill="#041830" transform="translate(495,464)"/>
<path d="M0 0 C0.66 0.33 1.32 0.66 2 1 C0.60667426 4.36720387 -0.9789286 5.9859524 -4 8 C-4.66 7.34 -5.32 6.68 -6 6 C-4.02 4.02 -2.04 2.04 0 0 Z " fill="#E3E6E8" transform="translate(519,745)"/>
<path d="M0 0 C0.66 2.97 1.32 5.94 2 9 C-2.875 4.375 -2.875 4.375 -4 1 C-2 0 -2 0 0 0 Z " fill="#D4D8DF" transform="translate(411,593)"/>
<path d="M0 0 C1.32 0.66 2.64 1.32 4 2 C-0.455 4.97 -0.455 4.97 -5 8 C-4.1875 4.5625 -4.1875 4.5625 -3 1 C-2.01 0.67 -1.02 0.34 0 0 Z " fill="#D5DBDF" transform="translate(452,515)"/>
<path d="M0 0 C-1.07401108 2.91517292 -1.77810176 4.77810176 -4 7 C-4.33 6.34 -4.66 5.68 -5 5 C-7.02463255 4.34786708 -7.02463255 4.34786708 -9 4 C-2.25 0 -2.25 0 0 0 Z " fill="#2D394B" transform="translate(480,528)"/>
<path d="M0 0 C-1.55500981 3.81684226 -4.03595495 6.19195732 -7 9 C-7.33 8.01 -7.66 7.02 -8 6 C-7.0479279 4.99403703 -6.08812654 3.99538437 -5.125 3 C-4.59132813 2.443125 -4.05765625 1.88625 -3.5078125 1.3125 C-2 0 -2 0 0 0 Z " fill="#13273E" transform="translate(471,932)"/>
<path d="M0 0 C0.66 0.66 1.32 1.32 2 2 C1.01 2.33 0.02 2.66 -1 3 C-1.28875 3.639375 -1.5775 4.27875 -1.875 4.9375 C-3.39098648 7.71680854 -5.05867273 8.07115981 -8 9 C-7.04270084 7.87411986 -6.08412105 6.7493285 -5.125 5.625 C-4.59132813 4.99851562 -4.05765625 4.37203125 -3.5078125 3.7265625 C-2.38567993 2.44163349 -1.20628025 1.20628025 0 0 Z " fill="#1E2E47" transform="translate(337,902)"/>
<path d="M0 0 C0.33 0.99 0.66 1.98 1 3 C-2.97610294 8.68014706 -2.97610294 8.68014706 -6.17578125 9.6796875 C-7.07876953 9.83824219 -7.07876953 9.83824219 -8 10 C-7.59007812 9.52949219 -7.18015625 9.05898438 -6.7578125 8.57421875 C-6.21898437 7.95160156 -5.68015625 7.32898438 -5.125 6.6875 C-4.59132813 6.07261719 -4.05765625 5.45773437 -3.5078125 4.82421875 C-1.8359553 2.86501788 -1.8359553 2.86501788 0 0 Z " fill="#162842" transform="translate(522,745)"/>
<path d="M0 0 C0.66 0 1.32 0 2 0 C2 0.66 2 1.32 2 2 C3.32 2 4.64 2 6 2 C6 2.66 6 3.32 6 4 C4.02 4.33 2.04 4.66 0 5 C-0.5625 3.0625 -0.5625 3.0625 -1 1 C-0.67 0.67 -0.34 0.34 0 0 Z " fill="#C0C8D1" transform="translate(613,495)"/>
<path d="M0 0 C0.33 1.32 0.66 2.64 1 4 C2.32 4.33 3.64 4.66 5 5 C3.71034824 6.37562854 2.37310707 7.70766393 1 9 C0.34 9 -0.32 9 -1 9 C-0.67 6.03 -0.34 3.06 0 0 Z " fill="#C3CBD2" transform="translate(506,993)"/>
<path d="M0 0 C3.91402949 1.26941497 5.79072873 2.51167694 8 6 C7.01 6.495 7.01 6.495 6 7 C1.125 3.375 1.125 3.375 0 0 Z " fill="#16283F" transform="translate(949,975)"/>
<path d="M0 0 C0.33 0.99 0.66 1.98 1 3 C-1.31 4.98 -3.62 6.96 -6 9 C-6 6 -6 6 -4.6875 4.39453125 C-4.130625 3.87246094 -3.57375 3.35039063 -3 2.8125 C-2.443125 2.28269531 -1.88625 1.75289062 -1.3125 1.20703125 C-0.6628125 0.60955078 -0.6628125 0.60955078 0 0 Z " fill="#1A2D45" transform="translate(269,976)"/>
<path d="M0 0 C0.33 0 0.66 0 1 0 C1 4.29 1 8.58 1 13 C-1.97 12.505 -1.97 12.505 -5 12 C-4.35546875 11.77570312 -3.7109375 11.55140625 -3.046875 11.3203125 C-0.75611148 10.17110544 -0.75611148 10.17110544 -0.390625 7.6171875 C-0.34421875 6.71226562 -0.2978125 5.80734375 -0.25 4.875 C-0.19328125 3.96492187 -0.1365625 3.05484375 -0.078125 2.1171875 C-0.05234375 1.41851563 -0.0265625 0.71984375 0 0 Z " fill="#49586B" transform="translate(762,946)"/>
<path d="M0 0 C0.66 0.66 1.32 1.32 2 2 C0.35 3.98 -1.3 5.96 -3 8 C-3.66 7.67 -4.32 7.34 -5 7 C-5 6.01 -5 5.02 -5 4 C-2.5 1.8125 -2.5 1.8125 0 0 Z " fill="#E7EAED" transform="translate(496,898)"/>
<path d="M0 0 C0.33 0.99 0.66 1.98 1 3 C-1.45906075 6.87774964 -3.61740632 8.66087415 -8 10 C-7.59007812 9.52949219 -7.18015625 9.05898438 -6.7578125 8.57421875 C-6.21898437 7.95160156 -5.68015625 7.32898438 -5.125 6.6875 C-4.59132813 6.07261719 -4.05765625 5.45773437 -3.5078125 4.82421875 C-1.8359553 2.86501788 -1.8359553 2.86501788 0 0 Z " fill="#1E3048" transform="translate(501,768)"/>
<path d="M0 0 C0.98120464 3.05263664 0.98120464 4.94736336 0 8 C-0.66 8 -1.32 8 -2 8 C-2.66 6.02 -3.32 4.04 -4 2 C-2.68 1.34 -1.36 0.68 0 0 Z " fill="#304057" transform="translate(304,704)"/>
<path d="M0 0 C3.3 0 6.6 0 10 0 C8.515 1.485 8.515 1.485 7 3 C3.3125 2.6875 3.3125 2.6875 0 2 C0 1.34 0 0.68 0 0 Z " fill="#CDD4D9" transform="translate(498,474)"/>
<path d="M0 0 C0.66 0.33 1.32 0.66 2 1 C2.625 4.0625 2.625 4.0625 3 7 C1.125 6.6875 1.125 6.6875 -1 6 C-1.66 5.01 -2.32 4.02 -3 3 C-2.34 3 -1.68 3 -1 3 C-0.67 2.01 -0.34 1.02 0 0 Z " fill="#D9DCE0" transform="translate(413,431)"/>
<path d="M0 0 C0 4.31618166 -2.13270348 5.92789659 -5 9 C-5.66 9 -6.32 9 -7 9 C-5.44499019 5.18315774 -2.96404505 2.80804268 0 0 Z " fill="#182B42" transform="translate(247,1000)"/>
<path d="M0 0 C0.33 0.99 0.66 1.98 1 3 C-0.65 4.65 -2.3 6.3 -4 8 C-4.99 7.67 -5.98 7.34 -7 7 C-4.69 4.69 -2.38 2.38 0 0 Z " fill="#1A2D45" transform="translate(281,963)"/>
<path d="M0 0 C0.33 0.99 0.66 1.98 1 3 C-2.0247093 7.70510336 -2.0247093 7.70510336 -5.14453125 8.6484375 C-5.75683594 8.76445313 -6.36914062 8.88046875 -7 9 C-6.02180976 7.68677212 -5.0424189 6.37443848 -4.0625 5.0625 C-3.51722656 4.33160156 -2.97195313 3.60070312 -2.41015625 2.84765625 C-1 1 -1 1 0 0 Z " fill="#1D2D44" transform="translate(378,905)"/>
<path d="M0 0 C0.66 0.66 1.32 1.32 2 2 C-1.465 4.97 -1.465 4.97 -5 8 C-5.66 7.67 -6.32 7.34 -7 7 C-4.69 4.69 -2.38 2.38 0 0 Z " fill="#25354C" transform="translate(509,887)"/>
<path d="M0 0 C0.66 0.33 1.32 0.66 2 1 C-0.31 3.64 -2.62 6.28 -5 9 C-5.33 8.01 -5.66 7.02 -6 6 C-4.02 4.02 -2.04 2.04 0 0 Z " fill="#152A42" transform="translate(425,853)"/>
<path d="M0 0 C0.33 0.99 0.66 1.98 1 3 C-0.65 4.65 -2.3 6.3 -4 8 C-4.99 7.67 -5.98 7.34 -7 7 C-4.69 4.69 -2.38 2.38 0 0 Z " fill="#1F344C" transform="translate(470,803)"/>
<path d="M0 0 C0.33 0 0.66 0 1 0 C0.8864371 1.64666203 0.75882619 3.29236082 0.625 4.9375 C0.52058594 6.31228516 0.52058594 6.31228516 0.4140625 7.71484375 C0.27742188 8.46894531 0.14078125 9.22304688 0 10 C-0.99 10.495 -0.99 10.495 -2 11 C-2 8.36 -2 5.72 -2 3 C-1.34 3 -0.68 3 0 3 C0 2.01 0 1.02 0 0 Z " fill="#202D43" transform="translate(260,728)"/>
<path d="M0 0 C-2 3 -2 3 -5 3.8125 C-5.99 3.874375 -6.98 3.93625 -8 4 C-8.66 3.34 -9.32 2.68 -10 2 C-6.49223216 0.39644899 -3.85645121 -0.22036864 0 0 Z " fill="#1A2C41" transform="translate(518,578)"/>
<path d="M0 0 C0.66 0.33 1.32 0.66 2 1 C1.09515208 2.15518918 0.1755794 3.29885406 -0.75 4.4375 C-1.26046875 5.07558594 -1.7709375 5.71367188 -2.296875 6.37109375 C-4.19667629 8.18810554 -5.43586908 8.60423197 -8 9 C-7.04270084 7.87411986 -6.08412105 6.7493285 -5.125 5.625 C-4.59132813 4.99851562 -4.05765625 4.37203125 -3.5078125 3.7265625 C-2.38567993 2.44163349 -1.20628025 1.20628025 0 0 Z " fill="#253249" transform="translate(492,528)"/>
<path d="M0 0 C0.66 0.66 1.32 1.32 2 2 C1.61121812 5.01305957 0.73543126 6.39685311 -1 9 C-1.66 9 -2.32 9 -3 9 C-2.01 6.03 -1.02 3.06 0 0 Z " fill="#263952" transform="translate(357,513)"/>
<path d="M0 0 C2.31 0 4.62 0 7 0 C7.33 1.32 7.66 2.64 8 4 C7.01 4 6.02 4 5 4 C5 3.34 5 2.68 5 2 C3.02 2 1.04 2 -1 2 C-0.67 1.34 -0.34 0.68 0 0 Z " fill="#1B2E43" transform="translate(578,452)"/>
<path d="M0 0 C2.475 0.495 2.475 0.495 5 1 C4.49396008 3.16874252 4.00016187 4.99967627 3 7 C2.01 6.67 1.02 6.34 0 6 C0.66 6 1.32 6 2 6 C1.34 4.02 0.68 2.04 0 0 Z " fill="#1C2F49" transform="translate(414,432)"/>
<path d="M0 0 C3.96 1.98 3.96 1.98 8 4 C7.01 4.99 6.02 5.98 5 7 C3.29115995 5.37660195 1.62553283 3.70680947 0 2 C0 1.34 0 0.68 0 0 Z " fill="#CED1D8" transform="translate(708,932)"/>
<path d="M0 0 C0.66 0.33 1.32 0.66 2 1 C1.01 2.98 0.02 4.96 -1 7 C-1.99 6.34 -2.98 5.68 -4 5 C-4 4.34 -4 3.68 -4 3 C-2 1.375 -2 1.375 0 0 Z " fill="#293950" transform="translate(618,891)"/>
<path d="M0 0 C0 4.38968456 -2.12805101 5.76905739 -5 9 C-5.66 8.67 -6.32 8.34 -7 8 C-4.69 5.36 -2.38 2.72 0 0 Z " fill="#1A2B43" transform="translate(400,881)"/>
<path d="M0 0 C0.99 0.33 1.98 0.66 3 1 C0.36 3.64 -2.28 6.28 -5 9 C-5.66 8.67 -6.32 8.34 -7 8 C-4.69 5.36 -2.38 2.72 0 0 Z " fill="#142943" transform="translate(456,818)"/>
<path d="M0 0 C0.33 0 0.66 0 1 0 C1.33 2.97 1.66 5.94 2 9 C0.68 8.01 -0.64 7.02 -2 6 C-1.49396008 3.83125748 -1.00016187 2.00032373 0 0 Z " fill="#2D2134" transform="translate(641,758)"/>
<path d="M0 0 C1 3 1 3 0.22265625 4.82421875 C-0.8515625 6.54947917 -1.92578125 8.27473958 -3 10 C-3.66 8.68 -4.32 7.36 -5 6 C-4.360625 5.38125 -3.72125 4.7625 -3.0625 4.125 C-0.96116416 2.17402388 -0.96116416 2.17402388 0 0 Z " fill="#152337" transform="translate(362,584)"/>
<path d="M0 0 C0 0.66 0 1.32 0 2 C-4.95 3.485 -4.95 3.485 -10 5 C-10 4.34 -10 3.68 -10 3 C-3.375 0 -3.375 0 0 0 Z " fill="#1E2B41" transform="translate(575,539)"/>
<path d="M0 0 C0.33 0 0.66 0 1 0 C1 2.31 1 4.62 1 7 C0.01 7 -0.98 7 -2 7 C-2 7.66 -2 8.32 -2 9 C-2.66 9 -3.32 9 -4 9 C-2.80100302 5.9168649 -1.52299523 2.93720508 0 0 Z " fill="#233A52" transform="translate(418,525)"/>
<path d="M0 0 C2.86697492 1.28519565 4.97607712 2.57129254 7 5 C7 5.66 7 6.32 7 7 C5.68 7 4.36 7 3 7 C2.87625 6.360625 2.7525 5.72125 2.625 5.0625 C2.315625 4.0415625 2.315625 4.0415625 2 3 C1.34 2.67 0.68 2.34 0 2 C0 1.34 0 0.68 0 0 Z " fill="#101C31" transform="translate(522,454)"/>
<path d="M0 0 C2.359375 0.046875 2.359375 0.046875 4.75 0.75 C5.54921875 0.97171875 6.3484375 1.1934375 7.171875 1.421875 C7.77515625 1.61265625 8.3784375 1.8034375 9 2 C9 2.33 9 2.66 9 3 C2.565 3.495 2.565 3.495 -4 4 C-2.68 2.68 -1.36 1.36 0 0 Z " fill="#435267" transform="translate(488,452)"/>
<path d="M0 0 C0.33 0.66 0.66 1.32 1 2 C1.66 2.33 2.32 2.66 3 3 C1.02 5.31 -0.96 7.62 -3 10 C-3 6.13304322 -1.58090029 3.4911548 0 0 Z " fill="#BFC7D0" transform="translate(455,942)"/>
<path d="M0 0 C0.66 0 1.32 0 2 0 C1.88557539 1.60495567 1.75805306 3.20898119 1.625 4.8125 C1.55539062 5.70582031 1.48578125 6.59914063 1.4140625 7.51953125 C1 10 1 10 -1 13 C-1.02696365 11.20841511 -1.04637917 9.41671527 -1.0625 7.625 C-1.07410156 6.62726562 -1.08570313 5.62953125 -1.09765625 4.6015625 C-1 2 -1 2 0 0 Z " fill="#727D8D" transform="translate(540,851)"/>
<path d="M0 0 C1.98 1.65 3.96 3.3 6 5 C5.67 5.99 5.34 6.98 5 8 C2.5 5.6875 2.5 5.6875 0 3 C0 2.01 0 1.02 0 0 Z " fill="#112844" transform="translate(567,764)"/>
<path d="M0 0 C0.33 0 0.66 0 1 0 C2.67357513 5.37305699 2.67357513 5.37305699 3 8 C1.625 10 1.625 10 0 11 C-1.37432457 7.18243176 -0.67975039 3.92744671 0 0 Z " fill="#B5BCC3" transform="translate(499,565)"/>
<path d="M0 0 C1.125 1.75 1.125 1.75 2 4 C1.05773345 6.66975522 0.01384202 7.98615798 -2 10 C-1.54177532 6.53058454 -1.10868317 3.32604951 0 0 Z " fill="#C1C6CD" transform="translate(502,527)"/>
<path d="M0 0 C0.33 0.66 0.66 1.32 1 2 C2.32 1.67 3.64 1.34 5 1 C5 1.66 5 2.32 5 3 C1.53846154 6 1.53846154 6 -1 6 C-0.67 4.02 -0.34 2.04 0 0 Z " fill="#314056" transform="translate(350,530)"/>
<path d="M0 0 C2 2 2 2 2.125 4.625 C2.08375 5.40875 2.0425 6.1925 2 7 C-0.475 6.01 -0.475 6.01 -3 5 C-2.67 4.01 -2.34 3.02 -2 2 C-1.34 2 -0.68 2 0 2 C0 1.34 0 0.68 0 0 Z " fill="#D3D7DB" transform="translate(608,423)"/>
<path d="M0 0 C0.99 0.33 1.98 0.66 3 1 C1.35 2.65 -0.3 4.3 -2 6 C-2.99 5.67 -3.98 5.34 -5 5 C-3.35 3.35 -1.7 1.7 0 0 Z " fill="#1B2B42" transform="translate(518,990)"/>
<path d="M0 0 C0.66666667 2.66666667 1.33333333 5.33333333 2 8 C0.68 8.99 -0.64 9.98 -2 11 C-1.125 3.375 -1.125 3.375 0 0 Z " fill="#B7BFC7" transform="translate(512,970)"/>
<path d="M0 0 C2.91517292 1.07401108 4.77810176 1.77810176 7 4 C3.7 4 0.4 4 -3 4 C-2.67 3.34 -2.34 2.68 -2 2 C-1.34 2 -0.68 2 0 2 C0 1.34 0 0.68 0 0 Z " fill="#233047" transform="translate(561,951)"/>
<path d="M0 0 C0.66 0 1.32 0 2 0 C2 0.66 2 1.32 2 2 C4.475 2.99 4.475 2.99 7 4 C6.67 4.99 6.34 5.98 6 7 C1.125 3.375 1.125 3.375 0 0 Z " fill="#DF2628" transform="translate(932,902)"/>
<path d="M0 0 C3.36720387 1.39332574 4.9859524 2.9789286 7 6 C4 6 4 6 1.8125 4.125 C0 2 0 2 0 0 Z " fill="#DD2E31" transform="translate(684,806)"/>
<path d="M0 0 C0.99 0 1.98 0 3 0 C3.99 1.98 4.98 3.96 6 6 C5.34 6.66 4.68 7.32 4 8 C0 2.25 0 2.25 0 0 Z " fill="#192F48" transform="translate(247,767)"/>
<path d="M0 0 C0.33 0 0.66 0 1 0 C1.36923077 5.41538462 1.36923077 5.41538462 -0.5 8.375 C-0.995 8.91125 -1.49 9.4475 -2 10 C-3.39195915 5.82412255 -1.82323219 3.86525224 0 0 Z " fill="#DBE0E4" transform="translate(543,763)"/>
<path d="M0 0 C1.5 1.375 1.5 1.375 3 3 C3 3.66 3 4.32 3 5 C2.01 5.33 1.02 5.66 0 6 C-0.66 6.66 -1.32 7.32 -2 8 C-1.125 2.25 -1.125 2.25 0 0 Z " fill="#C9CFD6" transform="translate(307,696)"/>
<path d="M0 0 C1.61949011 2.57213134 2.04408751 3.67669159 1.625 6.75 C1.41875 7.4925 1.2125 8.235 1 9 C0.34 8.67 -0.32 8.34 -1 8 C-0.67 5.36 -0.34 2.72 0 0 Z " fill="#CDD2D9" transform="translate(311,557)"/>
<path d="M0 0 C0.33 0.66 0.66 1.32 1 2 C0.06553465 4.03144641 -0.93224776 6.03533587 -2 8 C-2.33 7.01 -2.66 6.02 -3 5 C-3.66 4.67 -4.32 4.34 -5 4 C-3.35 2.68 -1.7 1.36 0 0 Z " fill="#23334D" transform="translate(452,508)"/>
<path d="M0 0 C-1.39332574 3.36720387 -2.9789286 4.9859524 -6 7 C-6 4 -6 4 -4.125 1.8125 C-2 0 -2 0 0 0 Z " fill="#C6191A" transform="translate(328,499)"/>
<path d="M0 0 C0.33 1.32 0.66 2.64 1 4 C0.01 4 -0.98 4 -2 4 C-2.33 4.66 -2.66 5.32 -3 6 C-3.33 4.35 -3.66 2.7 -4 1 C-2.68 0.67 -1.36 0.34 0 0 Z " fill="#29374F" transform="translate(377,473)"/>
<path d="M0 0 C1.98 1.65 3.96 3.3 6 5 C5.67 5.66 5.34 6.32 5 7 C4.34 7 3.68 7 3 7 C0.70351351 4.4385343 0 3.52032428 0 0 Z " fill="#172A44" transform="translate(709,935)"/>
<path d="M0 0 C1.5625 1.25 1.5625 1.25 3 3 C2.875 5.125 2.875 5.125 2 7 C1.01 7.33 0.02 7.66 -1 8 C-0.67 5.36 -0.34 2.72 0 0 Z " fill="#DDE2E6" transform="translate(529,902)"/>
<path d="M0 0 C0.66 0 1.32 0 2 0 C3.2890625 1.53125 3.2890625 1.53125 4.625 3.5 C5.07101562 4.1496875 5.51703125 4.799375 5.9765625 5.46875 C6.31429687 5.9740625 6.65203125 6.479375 7 7 C6.01 7 5.02 7 4 7 C0 2.65714286 0 2.65714286 0 0 Z " fill="#182A47" transform="translate(785,883)"/>
<path d="M0 0 C0.66 0 1.32 0 2 0 C1.375 1.875 1.375 1.875 0 4 C-3.125 5.25 -3.125 5.25 -6 6 C-4 4 -2 2 0 0 Z " fill="#1B3149" transform="translate(712,840)"/>
<path d="M0 0 C3.36720387 1.39332574 4.9859524 2.9789286 7 6 C6.01 6.495 6.01 6.495 5 7 C5 6.34 5 5.68 5 5 C4.360625 4.731875 3.72125 4.46375 3.0625 4.1875 C1 3 1 3 0 0 Z " fill="#E23133" transform="translate(653,776)"/>
<path d="M0 0 C2.125 0.9375 2.125 0.9375 4 2 C3.34 2.66 2.68 3.32 2 4 C0.68 4 -0.64 4 -2 4 C-2 3.01 -2 2.02 -2 1 C-1.34 0.67 -0.68 0.34 0 0 Z " fill="#2F4059" transform="translate(298,745)"/>
<path d="M0 0 C2.46278801 2.46278801 2.99771255 4.70676982 4 8 C2.02 7.01 0.04 6.02 -2 5 C-1.34 3.35 -0.68 1.7 0 0 Z " fill="#CACFD6" transform="translate(385,653)"/>
<path d="M0 0 C0 0.66 0 1.32 0 2 C-2.875 2.625 -2.875 2.625 -6 3 C-6.66 2.34 -7.32 1.68 -8 1 C-5.07175348 0.02391783 -3.04386724 -0.08226668 0 0 Z " fill="#213348" transform="translate(546,570)"/>
<path d="M0 0 C0.66666667 2.66666667 1.33333333 5.33333333 2 8 C1.01 8.66 0.02 9.32 -1 10 C-1.125 3.375 -1.125 3.375 0 0 Z " fill="#B4BDC6" transform="translate(309,565)"/>
<path d="M0 0 C0.33 0.66 0.66 1.32 1 2 C-0.32 3.65 -1.64 5.3 -3 7 C-3.99 6.67 -4.98 6.34 -6 6 C-4.02 4.02 -2.04 2.04 0 0 Z " fill="#0C1B2E" transform="translate(345,483)"/>
<path d="M0 0 C2.97 0 5.94 0 9 0 C7.68 1.32 6.36 2.64 5 4 C2.525 3.01 2.525 3.01 0 2 C0 1.34 0 0.68 0 0 Z " fill="#333F58" transform="translate(401,464)"/>
</svg>
